<svg xmlns="http://www.w3.org/2000/svg" width="100" height="100" viewBox="0 0 100 100">
  <path
    d="M80.59 53c0-8.08-8.03-10.612-16.3-10.612-10.66 0-19.648 5.687-19.648 9.608 0 1.147 3.824 5.927 4.686 5.927 1.025 0 1.79-.263 2.32-.545-.497-.253-1.013-.645-1.013-1.176 0-3.697 10.04-9.528 16.125-9.528 4.462 0 9.115 1.784 9.115 5.642 0 4.18-5.94 11.96-14.72 14.308 1.205-4.097 2.323-6.773 2.323-7.17 0-1.72-3.73-4.398-5.258-4.398-.613 0-2.265 5.546-3.67 12.2-6.403-.656-14.596-8.774-19.427-20.205 10.15-.993 19.208-9.238 19.208-19.29 0-8.08-8.03-10.613-16.3-10.613-10.66 0-19.648 5.69-19.648 9.61 0 1.147 3.825 5.927 4.686 5.927 1.025 0 1.792-.264 2.32-.545-.496-.255-1.014-.647-1.014-1.176 0-3.698 10.04-9.53 16.125-9.53 4.462 0 9.115 1.784 9.115 5.64 0 4.85-8.444 13.412-14.698 14.238 1.197-4.056 2.302-6.705 2.302-7.1 0-1.72-3.73-4.397-5.26-4.397-.573 0-2.052 4.846-3.39 10.913-1.953-.61-2.21-1.36-2.697-.873-.506.506-.587 3.596 1.736 5.59-.903 4.846-1.578 9.87-1.578 13.53 0 2.2 4.112 3.442 4.877 3.442.763 0 1.05-.765 1.05-2.198 0-1.86.1-3.68.27-5.44C37.38 63.59 45.887 69.584 53.698 71.62c-.816 4.55-1.406 9.17-1.406 12.595 0 2.2 4.112 3.442 4.876 3.442.765 0 1.053-.766 1.053-2.2 0-4.724.637-9.204 1.466-13.075C70.5 72.2 80.59 63.61 80.59 53z"
    fill="#F8EFE0"/>
</svg>
