<?xml version="1.0" standalone="no"?>
<!DOCTYPE svg PUBLIC "-//W3C//DTD SVG 20010904//EN"
 "http://www.w3.org/TR/2001/REC-SVG-20010904/DTD/svg10.dtd">
<svg version="1.0" xmlns="http://www.w3.org/2000/svg"
 width="16.000000pt" height="16.000000pt" viewBox="0 0 16.000000 16.000000"
 preserveAspectRatio="xMidYMid meet">
<metadata>
Created by potrace 1.11, written by Peter Selinger 2001-2013
</metadata>
<g transform="translate(0.000000,16.000000) scale(0.003125,-0.003125)"
fill="#000000" stroke="none">
<path d="M2320 5059 c-1125 -108 -2047 -963 -2234 -2074 -193 -1144 415 -2269
1474 -2728 1112 -482 2416 -99 3087 908 665 996 535 2323 -312 3170 -530 530
-1269 795 -2015 724z m-68 -873 c365 -66 549 -266 523 -570 -23 -270 -163
-512 -400 -689 -139 -103 -320 -181 -485 -208 -39 -7 -70 -16 -70 -21 0 -5 27
-62 60 -128 125 -250 233 -404 410 -580 148 -148 254 -222 377 -265 97 -35
120 -33 128 8 44 214 134 521 163 557 16 20 19 20 60 6 54 -19 93 -46 154
-105 77 -73 77 -79 9 -281 -32 -96 -55 -176 -51 -178 14 -5 162 56 242 101
244 134 454 386 483 578 25 165 -135 290 -400 314 -262 23 -740 -209 -839
-407 -32 -64 -32 -73 0 -105 14 -14 23 -27 21 -29 -2 -3 -29 -10 -59 -16 -50
-10 -57 -10 -84 10 -70 52 -204 243 -204 291 0 98 154 244 354 337 188 86 356
124 591 131 333 10 570 -52 721 -190 209 -191 178 -593 -70 -903 -187 -234
-491 -388 -801 -407 l-40 -2 -17 -92 c-27 -148 -47 -327 -54 -483 -8 -174 -16
-195 -74 -187 -49 6 -136 46 -177 81 -18 15 -36 42 -41 59 -12 48 3 268 33
475 15 101 25 184 23 185 -1 1 -43 16 -93 32 -346 113 -708 399 -923 728 l-51
78 -5 -33 c-3 -18 -8 -94 -12 -168 -3 -74 -10 -143 -15 -152 -15 -29 -76 -22
-155 16 -38 18 -82 48 -97 65 -25 30 -27 39 -27 124 0 107 20 291 51 488 l23
139 -27 28 c-40 42 -70 119 -71 184 -1 81 10 88 84 53 33 -16 61 -27 63 -24 1
2 18 67 36 144 38 157 73 277 103 348 16 37 25 47 45 47 60 0 216 -116 243
-181 12 -28 9 -45 -45 -205 -32 -96 -56 -177 -52 -180 10 -11 121 27 197 68
109 58 194 124 298 232 187 193 265 368 217 484 -69 163 -352 245 -616 178
-294 -75 -586 -274 -633 -432 -5 -15 1 -31 19 -52 l25 -30 -31 -11 c-69 -24
-96 -16 -155 46 -61 63 -151 192 -160 229 -16 65 73 187 194 268 168 110 356
179 582 212 118 17 380 12 502 -10z"/>
</g>
</svg>
