<?xml version="1.0" standalone="no"?>
<!DOCTYPE svg PUBLIC "-//W3C//DTD SVG 20010904//EN"
 "http://www.w3.org/TR/2001/REC-SVG-20010904/DTD/svg10.dtd">
<svg version="1.0" xmlns="http://www.w3.org/2000/svg"
 width="1945.000000pt" height="1945.000000pt" viewBox="0 0 1945.000000 1945.000000"
 preserveAspectRatio="xMidYMid meet">
<metadata>
Created by potrace 1.11, written by Peter Selinger 2001-2013
</metadata>
<g transform="translate(0.000000,1945.000000) scale(0.100000,-0.100000)"
fill="#000000" stroke="none">
<path d="M10240 17102 c0 -4 -34 -7 -75 -7 -41 0 -75 -3 -75 -7 0 -11 -52 -10
-69 1 -7 5 -28 5 -45 1 -39 -11 -166 -22 -271 -25 -171 -5 -446 -28 -550 -46
-59 -10 -203 -28 -257 -32 -16 -1 -28 -4 -28 -8 0 -3 -25 -6 -56 -7 -31 -1
-62 -6 -68 -11 -7 -6 -28 -10 -47 -10 -46 0 -73 -5 -80 -14 -3 -4 -55 -17
-115 -28 -123 -24 -124 -24 -144 -32 -8 -3 -22 -5 -30 -6 -33 0 -56 -7 -68
-18 -8 -8 -39 -13 -73 -13 -33 0 -59 -4 -59 -10 0 -5 -11 -10 -25 -10 -14 0
-25 -4 -25 -8 0 -5 -6 -9 -12 -9 -7 0 -49 -10 -93 -21 -44 -12 -116 -28 -160
-37 -44 -8 -89 -19 -100 -24 -55 -25 -107 -41 -116 -36 -5 4 -9 1 -9 -5 0 -7
-7 -10 -15 -6 -8 3 -15 1 -15 -4 0 -6 -11 -10 -25 -10 -14 0 -25 -4 -25 -8 0
-7 -19 -11 -80 -15 -14 -1 -28 -6 -32 -12 -4 -5 -11 -10 -15 -11 -4 0 -26 -4
-48 -9 -22 -5 -43 -8 -47 -7 -5 1 -8 -3 -8 -9 0 -6 -7 -9 -15 -5 -8 3 -15 2
-15 -3 0 -10 -35 -20 -90 -28 -19 -3 -44 -12 -55 -19 -11 -8 -32 -14 -47 -14
-16 0 -28 -4 -28 -8 0 -12 -50 -33 -61 -27 -5 4 -9 2 -9 -4 0 -5 -10 -13 -22
-16 -13 -4 -38 -13 -56 -22 -18 -8 -43 -16 -55 -17 -12 -1 -32 -8 -45 -15 -12
-6 -36 -14 -53 -16 -17 -2 -37 -9 -44 -15 -7 -6 -25 -12 -39 -14 -15 -1 -32
-11 -39 -21 -8 -9 -26 -17 -41 -17 -15 0 -30 -7 -33 -14 -3 -8 -14 -14 -25
-14 -10 0 -38 -9 -60 -20 -23 -11 -54 -20 -70 -20 -18 0 -28 -5 -28 -15 0 -9
-9 -15 -25 -15 -14 0 -25 -4 -25 -10 0 -5 -6 -10 -14 -10 -7 0 -24 -10 -38
-23 -14 -13 -30 -21 -36 -19 -7 2 -12 -1 -12 -7 0 -6 -7 -8 -15 -5 -8 4 -15 2
-15 -4 0 -10 -60 -38 -72 -34 -5 1 -8 -3 -8 -9 0 -5 -5 -7 -11 -4 -6 4 -21 -3
-34 -15 -13 -12 -28 -19 -34 -15 -6 3 -11 2 -11 -4 0 -8 -48 -25 -75 -26 -5 0
-13 -4 -17 -9 -3 -5 -12 -11 -20 -12 -29 -5 -68 -24 -68 -34 0 -5 -8 -10 -18
-10 -10 0 -24 -9 -32 -20 -8 -11 -20 -20 -27 -20 -7 0 -13 -5 -13 -12 0 -6 -3
-8 -7 -5 -3 4 -12 2 -20 -5 -7 -6 -16 -8 -19 -5 -4 3 -13 -1 -21 -9 -8 -8 -19
-12 -24 -9 -5 4 -9 1 -9 -4 0 -6 -7 -11 -15 -11 -8 0 -15 -4 -15 -10 0 -5 -7
-7 -15 -4 -8 4 -15 2 -15 -4 0 -5 -11 -13 -25 -16 -14 -4 -23 -11 -20 -16 3
-6 -1 -10 -9 -10 -8 0 -22 -7 -30 -16 -9 -8 -16 -12 -16 -8 0 3 -7 1 -15 -6
-8 -6 -18 -9 -23 -6 -6 3 -12 -4 -15 -15 -4 -15 -11 -20 -22 -15 -9 3 -14 2
-11 -3 3 -5 -8 -14 -24 -21 -17 -7 -30 -16 -30 -21 0 -5 -7 -9 -15 -9 -14 0
-37 -16 -71 -48 -8 -7 -18 -10 -24 -7 -5 3 -22 -7 -36 -22 -14 -15 -33 -27
-41 -25 -8 2 -12 -1 -9 -6 7 -12 -52 -35 -65 -26 -5 3 -8 0 -7 -6 2 -6 -8 -19
-22 -28 -19 -14 -22 -14 -15 -2 8 13 7 13 -11 0 -10 -8 -25 -23 -32 -32 -7
-10 -22 -18 -33 -18 -10 0 -19 -4 -19 -10 0 -5 -6 -10 -13 -10 -7 0 -19 -9
-27 -20 -8 -11 -19 -20 -25 -20 -10 0 -55 -35 -96 -75 -9 -8 -21 -15 -28 -15
-7 0 -10 -4 -7 -9 3 -5 -12 -18 -34 -29 -22 -10 -37 -22 -33 -26 3 -3 -1 -6
-10 -6 -9 0 -22 -9 -29 -20 -7 -11 -19 -20 -26 -20 -6 0 -20 -9 -29 -20 -10
-11 -23 -20 -30 -20 -7 0 -13 -7 -13 -15 0 -13 -18 -20 -42 -16 -5 0 -7 -2 -7
-7 4 -21 -3 -34 -14 -29 -8 3 -20 -3 -28 -14 -7 -10 -19 -19 -25 -19 -6 0 -18
-8 -25 -17 -12 -14 -12 -16 0 -8 10 5 12 4 7 -3 -4 -7 -14 -12 -22 -12 -8 0
-14 -6 -14 -14 0 -8 -8 -17 -18 -21 -11 -3 -24 -17 -30 -30 -6 -14 -18 -25
-26 -25 -9 0 -13 -6 -10 -15 4 -10 -6 -20 -30 -32 -20 -9 -36 -19 -36 -23 0
-3 -20 -28 -45 -55 -25 -28 -48 -58 -51 -67 -3 -10 -10 -18 -15 -18 -6 0 -8
-4 -4 -9 3 -5 -4 -12 -15 -16 -11 -4 -18 -10 -15 -15 3 -5 -4 -11 -15 -15 -11
-4 -18 -11 -15 -16 4 -5 -3 -13 -14 -17 -11 -4 -21 -11 -22 -17 -4 -26 -20
-55 -29 -55 -5 0 -10 -7 -10 -15 0 -8 -6 -14 -12 -12 -7 1 -12 -4 -11 -10 3
-13 -14 -38 -57 -83 -14 -15 -25 -33 -25 -41 0 -8 -6 -13 -12 -12 -7 2 -13 -3
-13 -11 0 -8 -7 -16 -15 -20 -8 -3 -15 -12 -15 -21 0 -8 -4 -15 -10 -15 -5 0
-12 -11 -16 -25 -3 -14 -12 -25 -20 -25 -8 0 -14 -6 -14 -14 0 -7 -11 -25 -25
-40 -14 -15 -25 -32 -25 -37 0 -6 -4 -8 -9 -5 -5 3 -12 -5 -15 -18 -3 -14 -15
-28 -26 -31 -11 -4 -18 -11 -15 -16 4 -5 -1 -12 -10 -15 -9 -4 -22 -22 -30
-40 -8 -19 -20 -34 -28 -34 -8 0 -18 -11 -21 -24 -4 -16 -15 -25 -35 -29 -23
-5 -28 -10 -26 -32 2 -14 -1 -23 -6 -19 -5 3 -9 -2 -9 -10 0 -9 -4 -16 -10
-16 -5 0 -10 -7 -10 -15 0 -8 -4 -15 -9 -15 -5 0 -13 -9 -16 -20 -4 -11 -11
-18 -16 -15 -5 3 -6 -1 -3 -9 3 -9 1 -16 -5 -16 -6 0 -11 -7 -11 -16 0 -9 -5
-12 -12 -8 -8 5 -9 2 -5 -9 3 -10 2 -17 -3 -17 -6 0 -10 -9 -10 -20 0 -11 -4
-20 -10 -20 -5 0 -10 -7 -10 -15 0 -8 -5 -15 -11 -15 -5 0 -7 -5 -3 -12 5 -8
2 -9 -12 -4 -10 4 -15 4 -11 0 4 -4 1 -14 -6 -22 -10 -13 -9 -15 3 -8 8 4 5
-1 -8 -10 -12 -9 -22 -25 -22 -36 0 -10 -7 -21 -15 -24 -8 -4 -15 -14 -15 -23
0 -9 -14 -31 -30 -50 -17 -18 -28 -37 -25 -42 4 -5 0 -9 -8 -9 -8 0 -22 -20
-31 -45 -10 -25 -25 -49 -34 -55 -9 -5 -13 -10 -8 -10 6 0 1 -7 -10 -16 -10
-8 -14 -13 -7 -9 7 3 0 -17 -14 -44 -15 -27 -30 -48 -34 -45 -4 2 -10 -3 -13
-12 -3 -8 -2 -12 4 -9 6 3 7 -1 4 -9 -3 -9 -11 -13 -17 -9 -6 4 -8 0 -4 -10 3
-10 2 -17 -3 -17 -4 0 -11 -13 -15 -29 -3 -16 -13 -32 -21 -35 -9 -3 -13 -10
-10 -15 4 -5 -2 -17 -11 -27 -10 -10 -17 -20 -17 -23 1 -3 -2 -5 -7 -4 -4 2
-5 -5 -2 -14 5 -12 3 -14 -7 -8 -8 5 -11 4 -6 -3 3 -6 0 -17 -8 -25 -8 -8 -12
-18 -8 -22 4 -3 0 -12 -9 -18 -9 -7 -19 -22 -23 -35 -4 -12 -12 -20 -17 -17
-5 4 -9 -8 -9 -25 0 -18 -6 -33 -15 -36 -8 -4 -13 -10 -10 -14 7 -11 -5 -41
-14 -36 -4 3 -8 -5 -8 -16 -1 -12 -7 -25 -14 -29 -11 -7 -39 -72 -41 -96 -1
-6 -7 -9 -13 -7 -8 3 -11 -6 -10 -26 1 -19 -3 -30 -11 -30 -7 0 -11 -8 -9 -19
2 -11 -3 -25 -11 -31 -7 -7 -12 -16 -9 -20 3 -4 -2 -13 -10 -20 -8 -7 -12 -16
-9 -21 3 -5 0 -9 -6 -9 -6 0 -10 -6 -9 -12 1 -7 -3 -26 -9 -41 -7 -16 -12 -33
-12 -38 0 -5 -5 -9 -10 -9 -6 0 -9 -6 -8 -12 2 -7 -2 -12 -9 -11 -7 2 -10 -3
-7 -11 3 -8 0 -17 -5 -21 -6 -3 -9 -11 -6 -16 4 -5 1 -9 -4 -9 -6 0 -11 -11
-11 -24 0 -13 -7 -27 -16 -30 -10 -4 -14 -12 -10 -22 3 -8 -1 -22 -9 -30 -8
-9 -15 -23 -15 -32 0 -28 -36 -113 -44 -105 -4 4 -4 -1 0 -11 6 -15 4 -17 -6
-11 -9 5 -11 4 -6 -3 4 -7 4 -18 -1 -24 -4 -7 -9 -21 -10 -32 -2 -10 -12 -31
-24 -47 -11 -16 -18 -29 -16 -29 3 0 -9 -35 -27 -77 -47 -113 -48 -115 -50
-148 -3 -35 -56 -155 -69 -155 -4 0 -5 -5 -2 -10 3 -6 -1 -17 -9 -26 -9 -9
-14 -20 -10 -25 3 -6 -1 -21 -10 -34 -9 -13 -16 -35 -16 -47 0 -13 -7 -33 -15
-44 -8 -12 -12 -24 -8 -27 3 -4 -1 -9 -10 -13 -9 -3 -13 -12 -11 -19 3 -7 -10
-62 -30 -122 -44 -137 -55 -180 -48 -187 3 -3 0 -6 -7 -6 -7 0 -9 -5 -6 -10 4
-6 1 -17 -5 -25 -7 -8 -9 -15 -6 -15 4 0 2 -9 -4 -19 -5 -11 -12 -55 -15 -98
-7 -92 -13 -116 -27 -107 -7 5 -8 2 -2 -7 10 -16 12 -189 2 -189 -3 0 -5 -11
-3 -25 1 -14 -1 -25 -4 -25 -4 0 -6 -31 -6 -70 1 -38 -2 -70 -6 -70 -4 0 -6
-18 -3 -40 3 -22 1 -40 -3 -40 -4 0 -8 -28 -9 -62 0 -35 -3 -92 -7 -128 -10
-99 -19 -323 -17 -435 0 -55 0 -113 0 -130 -1 -16 -1 -37 -1 -45 1 -8 3 -67 6
-130 2 -63 7 -157 10 -207 5 -77 4 -92 -8 -88 -8 4 -14 -1 -14 -10 0 -9 6 -14
13 -11 17 6 27 -40 14 -64 -13 -24 -13 -33 0 -25 6 3 10 0 10 -7 1 -16 8 -73
20 -148 4 -30 7 -70 5 -87 -1 -18 1 -33 6 -33 5 0 9 -12 10 -27 0 -58 4 -93
10 -93 4 0 6 -18 5 -41 -1 -22 2 -43 6 -45 5 -3 3 -12 -3 -21 -10 -12 -10 -16
2 -23 8 -5 15 -17 16 -27 4 -41 14 -101 23 -148 6 -27 11 -62 12 -77 1 -15 5
-25 10 -22 4 3 8 -12 8 -33 0 -21 6 -55 13 -76 8 -21 13 -60 13 -86 -1 -27 3
-47 8 -44 5 3 7 -8 4 -26 -2 -17 -1 -31 4 -31 5 0 8 -8 6 -17 -1 -10 1 -23 4
-29 7 -10 20 -96 22 -136 0 -10 3 -18 7 -18 8 0 15 -30 24 -90 4 -33 14 -72
36 -150 6 -19 15 -56 21 -82 6 -27 15 -48 19 -48 5 0 9 -9 9 -19 0 -11 5 -23
10 -26 6 -3 10 -24 10 -46 0 -21 4 -39 8 -39 4 0 13 -17 19 -37 12 -39 51
-148 70 -193 6 -14 8 -29 6 -34 -3 -4 -2 -11 3 -15 16 -11 35 -52 29 -61 -4
-6 -2 -10 3 -10 6 0 8 -9 5 -20 -3 -13 1 -22 11 -26 11 -4 15 -13 10 -26 -4
-13 -2 -18 4 -14 9 5 28 -39 24 -57 -1 -4 7 -17 18 -29 11 -12 18 -28 16 -35
-3 -7 -2 -13 3 -13 4 0 8 -6 9 -12 2 -32 9 -50 21 -58 8 -4 11 -14 9 -21 -3
-8 3 -25 14 -38 10 -14 16 -32 13 -43 -5 -12 -1 -18 10 -18 9 0 14 -4 10 -9
-3 -5 -1 -12 5 -16 5 -3 10 -15 10 -26 0 -10 5 -19 10 -19 6 0 10 -5 10 -11 0
-5 12 -35 26 -64 14 -30 23 -59 19 -65 -3 -5 0 -10 8 -10 13 0 27 -24 31 -55
1 -5 7 -20 14 -32 7 -12 12 -31 12 -43 0 -12 4 -19 9 -15 9 5 37 -62 33 -77
-1 -5 2 -8 8 -8 5 0 10 -11 10 -25 0 -14 5 -25 11 -25 5 0 7 -4 4 -10 -3 -5
-2 -10 3 -10 12 0 45 -50 45 -67 0 -7 4 -13 9 -13 5 0 6 -4 3 -10 -3 -5 -1
-10 5 -10 6 0 9 -4 6 -9 -3 -5 1 -12 10 -15 10 -4 13 -13 9 -26 -5 -14 -2 -20
9 -20 9 0 16 -9 16 -20 0 -11 5 -20 11 -20 6 0 9 -7 5 -15 -3 -8 -1 -15 5 -15
6 0 8 -4 5 -9 -3 -4 3 -19 15 -32 11 -12 18 -28 15 -35 -2 -6 9 -26 25 -43 16
-18 29 -35 29 -39 0 -3 17 -22 38 -42 21 -19 37 -41 34 -48 -2 -7 2 -10 11 -6
16 6 52 -48 40 -60 -4 -3 1 -6 10 -6 10 0 16 -5 15 -12 -2 -7 4 -12 12 -13 8
-1 14 -6 13 -12 -2 -7 4 -27 12 -45 8 -18 14 -29 15 -25 0 5 7 2 15 -5 8 -7
21 -19 30 -26 8 -7 13 -17 10 -22 -3 -6 1 -7 10 -4 11 5 16 2 15 -7 -3 -19 11
-59 20 -59 4 0 13 -13 20 -29 8 -21 17 -27 30 -24 15 4 18 1 13 -16 -6 -23 14
-54 28 -45 5 3 9 -2 9 -10 0 -9 5 -16 10 -16 6 0 10 -7 10 -15 0 -8 6 -15 14
-15 8 0 16 -10 18 -23 2 -12 9 -21 16 -19 6 1 12 -7 12 -18 0 -13 5 -18 15
-14 10 4 15 0 15 -15 0 -12 6 -21 14 -21 7 0 16 -9 19 -21 3 -12 10 -18 15
-15 5 3 14 -6 21 -21 6 -14 14 -23 18 -20 7 8 33 -18 33 -32 0 -6 5 -11 11
-11 5 0 8 -4 5 -9 -3 -5 2 -8 12 -7 10 0 16 -6 16 -16 -1 -10 5 -18 13 -18 9
0 13 -6 9 -15 -5 -13 5 -20 27 -16 4 0 7 -6 7 -15 0 -8 5 -12 10 -9 6 3 13 -2
17 -12 4 -10 22 -33 40 -51 18 -19 30 -39 26 -45 -3 -5 -1 -7 4 -4 6 4 18 -2
28 -13 10 -11 15 -20 10 -20 -4 0 -2 -6 4 -13 6 -8 8 -17 4 -20 -3 -4 2 -7 13
-7 20 0 74 -44 74 -61 0 -5 11 -14 25 -19 14 -5 25 -14 25 -19 0 -5 9 -13 20
-16 11 -3 20 -15 20 -25 0 -14 5 -18 16 -13 12 4 15 2 12 -8 -5 -15 8 -32 32
-42 9 -3 10 -6 3 -6 -19 -1 -16 -15 8 -29 17 -11 20 -11 14 0 -4 7 4 2 18 -12
13 -14 24 -29 23 -34 0 -5 11 -16 26 -23 16 -8 28 -21 28 -29 0 -8 5 -12 10
-9 5 3 10 0 10 -8 0 -16 36 -43 65 -49 11 -2 20 -8 20 -13 0 -18 16 -35 26
-29 5 3 8 1 7 -4 -4 -13 58 -63 82 -65 12 -1 20 -8 20 -19 0 -11 14 -23 35
-32 19 -8 35 -18 35 -21 0 -3 -5 -3 -12 1 -7 4 -8 3 -4 -4 4 -7 14 -12 23 -12
8 0 32 -17 52 -38 20 -21 44 -41 54 -45 9 -3 17 -14 17 -23 0 -10 5 -14 15
-10 10 4 15 -1 15 -15 0 -11 4 -18 9 -14 14 8 61 -16 61 -33 0 -8 6 -12 15 -8
8 3 20 0 27 -7 7 -7 25 -18 41 -26 15 -8 27 -20 27 -27 0 -8 8 -10 22 -6 14 3
19 2 14 -6 -5 -8 0 -12 13 -12 11 0 26 -6 33 -13 7 -8 19 -12 26 -9 6 2 12 -4
12 -12 0 -10 12 -19 30 -22 17 -4 30 -9 30 -13 0 -4 14 -15 30 -24 17 -10 30
-15 30 -11 0 4 8 0 18 -9 10 -10 22 -14 25 -11 4 4 9 -1 13 -10 3 -9 10 -13
15 -11 4 3 14 -3 21 -15 7 -11 21 -20 30 -20 10 0 17 -5 15 -11 -1 -7 13 -16
31 -21 17 -5 32 -15 32 -23 0 -8 6 -12 13 -9 8 3 29 -9 46 -26 18 -16 37 -30
41 -30 4 0 11 -7 14 -16 3 -9 13 -14 21 -10 8 3 20 -1 27 -8 7 -7 35 -25 61
-41 27 -15 51 -34 54 -40 2 -7 13 -10 25 -7 14 3 19 1 14 -6 -4 -7 3 -14 18
-18 14 -3 28 -15 31 -25 4 -10 13 -19 20 -19 23 0 65 -22 59 -31 -3 -5 7 -9
21 -9 14 0 24 -4 21 -9 -3 -5 5 -12 19 -15 13 -3 34 -16 46 -29 12 -12 19 -16
15 -10 -5 9 -2 11 8 7 9 -3 13 -10 10 -15 -3 -5 4 -9 16 -9 12 0 18 -4 15 -10
-3 -5 2 -10 13 -10 10 0 28 -9 40 -20 12 -11 28 -20 37 -20 8 0 15 -4 15 -10
0 -5 9 -10 19 -10 10 0 21 -7 25 -15 3 -10 19 -15 46 -15 22 0 40 -4 40 -9 0
-9 38 -26 83 -35 16 -4 25 -11 21 -17 -3 -6 0 -10 7 -9 24 3 59 -12 59 -25 0
-7 8 -12 18 -12 19 1 90 -31 110 -50 7 -7 16 -13 18 -13 3 0 2 6 -2 13 -6 9
-4 9 7 -1 7 -6 21 -12 31 -12 10 0 17 -5 15 -12 -1 -7 5 -13 13 -14 37 -3 41
-5 35 -14 -3 -5 0 -8 7 -5 7 3 31 -4 53 -15 21 -11 45 -20 53 -20 7 0 10 -4 7
-10 -3 -5 3 -10 15 -10 11 0 37 -7 58 -17 43 -19 47 -20 68 -22 8 0 13 -5 10
-10 -3 -5 6 -9 20 -9 15 0 29 -4 33 -8 9 -14 61 -35 71 -29 5 3 11 1 15 -5 4
-6 11 -8 16 -5 5 4 12 -1 15 -10 4 -10 14 -15 25 -12 10 3 27 -2 38 -9 11 -8
37 -16 58 -18 21 -3 42 -5 46 -5 5 -1 5 -6 2 -11 -4 -6 -3 -9 2 -8 18 5 93
-13 93 -22 0 -6 11 -10 24 -10 13 0 29 -7 36 -15 7 -9 15 -14 17 -11 2 2 39
-9 83 -24 43 -16 80 -27 83 -24 2 2 21 -4 43 -13 21 -10 46 -18 54 -19 8 0 23
-2 33 -3 10 0 15 -6 12 -12 -4 -6 -1 -9 6 -8 22 5 90 -11 113 -26 12 -7 41
-15 66 -18 71 -8 104 -17 112 -30 5 -9 8 -8 8 3 1 11 4 10 15 -4 8 -11 15 -14
15 -8 0 13 45 7 65 -8 6 -5 22 -7 38 -5 15 2 27 -2 27 -8 0 -5 3 -7 6 -4 4 3
16 1 28 -5 11 -7 37 -12 56 -13 19 -1 51 -6 70 -12 29 -10 103 -25 132 -27 3
-1 9 -4 13 -8 4 -4 14 -4 23 -1 9 4 13 2 9 -4 -4 -6 -1 -11 6 -10 43 1 77 -4
72 -12 -3 -6 5 -8 19 -5 13 2 30 -2 38 -9 7 -6 33 -13 58 -13 65 -2 150 -13
190 -26 19 -6 51 -11 70 -11 19 0 39 -2 43 -4 4 -3 36 -6 70 -8 34 -2 76 -6
92 -10 39 -8 110 -14 270 -20 110 -4 180 -9 180 -15 0 0 52 -2 115 -3 63 -1
120 -6 127 -10 6 -4 23 -3 38 3 31 12 97 9 107 -5 5 -6 8 -5 8 2 0 10 48 13
198 12 108 0 214 4 234 9 26 7 38 6 42 -2 3 -8 7 -8 13 0 4 6 45 12 93 13 217
6 252 8 258 18 4 5 33 10 65 9 31 -1 57 2 57 6 0 4 21 7 48 8 92 2 122 5 122
13 0 4 6 7 13 5 6 -1 56 4 110 11 54 8 100 11 104 7 3 -3 12 -1 20 5 7 7 41
13 76 15 34 2 78 6 97 10 19 4 51 8 71 9 19 1 50 12 67 25 17 13 44 23 61 22
17 0 33 4 36 9 4 5 17 9 30 9 13 0 26 4 29 9 3 5 20 11 38 14 18 3 71 15 118
27 47 12 99 23 115 25 17 3 66 14 110 26 44 12 101 25 126 29 71 13 129 32
123 41 -5 9 16 13 48 11 11 -1 15 3 12 13 -5 11 1 15 20 15 14 0 26 5 26 11 0
7 10 9 25 7 14 -3 29 0 35 7 6 7 21 11 35 9 14 -1 25 1 25 6 0 11 56 33 85 33
15 0 25 5 25 13 0 10 12 14 38 14 22 0 52 7 69 15 16 8 40 17 54 19 13 2 25 5
27 7 3 2 12 5 57 14 22 4 48 14 58 23 9 8 17 12 17 7 0 -4 7 -2 15 5 8 6 19 9
25 5 5 -3 10 -1 10 4 0 6 8 11 18 11 11 0 32 7 49 15 17 8 44 16 61 18 17 1
31 6 31 11 -1 10 67 46 85 46 6 0 33 11 60 25 27 14 60 25 72 25 13 0 26 5 29
10 3 6 16 10 29 10 13 0 31 9 41 20 10 11 26 20 35 20 10 0 23 7 30 15 7 8 23
15 36 15 13 0 24 4 24 9 0 5 25 19 55 31 30 12 55 26 55 31 0 4 16 11 35 15
20 3 32 11 28 16 -4 7 6 9 26 6 21 -3 30 -1 29 8 -2 7 0 13 4 14 4 0 20 12 34
25 15 14 33 25 40 25 8 0 14 4 14 9 0 5 13 12 29 16 16 3 32 13 35 21 3 9 10
12 16 9 5 -3 10 -1 10 4 0 6 7 11 16 11 8 0 13 4 10 9 -4 5 7 12 24 16 16 4
30 11 30 17 0 15 31 37 53 38 11 0 15 4 11 12 -5 7 0 9 14 6 14 -4 19 -2 16 7
-4 8 6 16 25 20 17 4 29 11 26 16 -4 5 7 15 22 21 15 7 34 18 41 25 7 7 20 13
28 13 8 0 13 4 9 9 -3 6 5 15 17 22 13 6 37 26 53 44 17 17 37 35 45 39 39 18
61 34 58 42 -2 5 7 10 20 12 12 2 22 9 22 15 0 11 16 23 82 63 10 6 15 14 11
17 -3 4 1 7 10 7 9 0 31 18 48 40 18 22 39 40 47 40 9 0 12 3 9 7 -9 9 22 43
40 43 7 0 13 6 13 13 0 7 14 23 30 37 17 14 30 30 30 37 0 7 6 13 13 13 7 0
18 9 25 20 7 12 17 18 23 15 5 -4 8 -3 7 2 -5 16 51 75 64 67 7 -4 10 -4 6 1
-9 9 10 47 20 41 4 -2 13 2 20 10 7 8 10 14 6 14 -4 0 7 13 24 29 16 16 27 32
24 36 -3 3 4 8 16 12 12 3 20 9 17 13 -3 5 6 22 20 38 14 16 25 33 25 36 0 4
5 12 10 19 6 7 24 28 40 47 16 19 30 39 30 43 0 5 4 6 9 3 5 -3 8 2 7 12 0 9
4 16 11 15 7 -2 20 13 29 33 16 34 36 62 77 105 9 10 17 23 17 28 0 5 3 11 8
13 11 5 56 68 84 118 38 70 61 132 59 162 -2 32 24 50 59 41 16 -4 21 -3 16 5
-4 7 0 15 8 18 9 3 16 12 16 19 0 6 18 40 40 74 22 34 40 66 40 71 0 4 6 10
12 12 7 3 13 13 13 24 0 10 6 18 13 16 6 -1 13 2 13 8 1 5 2 13 3 18 0 4 11
18 24 32 12 13 22 34 22 47 0 13 5 23 10 23 6 0 9 3 9 8 -1 4 0 10 1 15 4 12
7 26 9 38 0 5 6 7 13 3 6 -4 8 -3 5 4 -10 15 3 43 16 35 5 -3 7 -1 4 4 -4 6 2
22 13 36 11 14 20 30 20 35 0 5 7 13 16 16 9 4 14 13 10 21 -3 9 1 18 9 21 8
4 12 10 9 15 -6 10 40 92 47 84 3 -2 6 5 6 17 1 11 9 28 17 37 9 10 16 25 16
35 0 10 5 14 11 11 6 -4 10 -1 8 6 -3 27 1 39 13 37 7 -2 13 4 13 12 1 8 6 28
13 43 7 16 12 33 12 38 0 5 7 9 15 9 14 0 20 24 16 57 -1 7 5 13 14 13 8 0 15
8 15 19 0 10 7 24 15 31 8 7 13 16 10 20 -3 4 4 19 16 33 11 15 20 29 19 32 0
3 1 7 1 10 1 3 2 11 3 18 1 6 7 11 14 10 6 -2 9 4 6 12 -4 8 -1 15 6 15 6 0
10 5 8 12 -3 7 3 20 11 30 9 10 16 22 17 26 3 26 18 62 26 62 5 0 6 5 3 10 -3
6 -2 10 4 10 6 0 13 12 17 28 8 34 45 113 62 130 15 17 16 26 1 16 -14 -8 9
35 28 55 8 8 12 22 10 32 -3 11 -1 19 5 19 6 0 8 6 5 14 -3 7 1 23 9 35 8 11
13 21 9 21 -3 0 1 13 10 29 8 17 17 38 19 48 13 62 19 83 27 83 4 0 7 12 7 28
0 15 9 44 20 64 12 21 19 45 16 53 -4 9 1 24 10 34 9 10 13 21 9 25 -4 4 -2
10 4 14 7 4 14 19 17 32 3 14 8 38 11 54 7 34 23 66 33 66 4 0 7 16 8 36 0 20
5 39 10 42 10 7 14 21 22 65 2 15 9 27 15 27 6 0 7 3 4 7 -4 3 0 17 9 31 8 13
13 26 10 29 -3 3 2 22 10 42 9 20 17 41 18 48 1 7 5 16 9 19 4 4 7 16 7 26 0
10 5 18 11 18 5 0 8 4 5 8 -3 5 1 30 9 55 8 26 14 50 14 52 0 20 26 85 33 85
5 0 7 4 4 8 -3 4 0 26 5 48 5 21 12 55 15 74 2 19 8 37 12 40 4 3 9 16 10 30
2 14 9 31 15 39 7 8 13 28 13 45 3 42 12 78 23 89 5 5 7 16 4 23 -3 8 0 20 6
27 6 8 12 35 12 60 1 26 6 47 12 47 5 0 7 7 3 15 -3 8 -1 15 5 15 6 0 9 6 6
14 -3 8 -3 17 1 20 3 4 5 29 5 57 -1 32 2 47 9 43 6 -4 8 6 5 29 -3 20 -2 38
1 41 2 3 6 21 8 41 2 19 7 41 11 48 4 6 8 28 9 47 2 66 15 194 20 202 6 9 14
126 16 226 0 34 5 65 10 68 4 3 5 11 1 17 -13 21 -12 37 3 37 8 0 14 5 14 10
0 6 -4 10 -9 10 -5 0 -7 19 -5 42 3 24 5 71 5 106 0 43 4 60 11 56 8 -5 8 -3
2 7 -10 16 -12 109 -3 109 4 0 4 15 2 33 -3 17 -7 86 -9 152 -2 66 -5 174 -7
241 -2 67 -8 127 -12 134 -6 9 -4 11 5 5 9 -6 11 -4 5 5 -4 7 -9 27 -11 44 -5
67 -16 193 -20 236 -2 25 -5 57 -6 73 0 15 -4 27 -8 27 -4 0 -7 12 -8 28 0 15
-1 29 -2 32 -2 5 -9 82 -11 128 -1 12 -5 22 -9 22 -4 0 -8 10 -8 23 0 12 -3
54 -8 92 -4 39 -8 80 -8 93 -1 12 -4 22 -8 22 -4 0 -7 15 -6 33 1 17 -7 47
-16 65 -9 18 -18 59 -19 91 -1 33 -5 57 -9 54 -5 -2 -9 6 -9 19 -2 43 -15 98
-36 155 -8 23 -13 49 -10 58 4 8 2 15 -4 15 -6 0 -9 8 -8 18 2 9 -2 26 -8 37
-6 11 -11 23 -12 28 -1 4 -1 8 -2 10 -4 12 -9 38 -15 67 -3 19 -9 40 -14 45
-4 6 -11 30 -15 55 -4 25 -13 59 -21 75 -21 45 -34 96 -23 90 5 -4 9 0 9 8 0
8 -7 18 -16 21 -9 4 -14 9 -11 12 3 3 1 18 -5 33 -6 14 -11 33 -12 41 -1 8 -5
22 -8 30 -24 70 -50 152 -52 162 -1 7 -6 19 -10 27 -7 10 -5 12 5 6 11 -6 12
-5 2 6 -7 7 -13 21 -13 31 0 10 -4 18 -8 18 -4 0 -9 12 -10 28 -1 15 -6 28
-11 30 -5 2 -6 12 -3 24 3 13 1 19 -5 15 -8 -5 -29 56 -37 105 -1 7 -5 19 -9
26 -5 6 -5 12 -1 12 3 0 1 7 -6 15 -6 8 -9 19 -5 25 3 5 1 10 -5 10 -7 0 -10
7 -6 15 3 8 1 15 -4 15 -6 0 -9 3 -8 8 0 4 -2 15 -5 25 -4 9 -10 25 -14 35 -3
9 -5 25 -4 35 1 9 -2 17 -6 17 -5 0 -15 21 -22 48 -15 53 -26 80 -82 200 -22
46 -39 86 -39 90 0 4 -9 26 -20 47 -11 22 -18 45 -15 52 2 7 -3 13 -11 13 -10
0 -14 6 -10 15 3 8 2 15 -3 15 -9 0 -23 33 -25 58 -1 7 -7 17 -15 21 -8 5 -10
14 -6 22 5 8 4 11 0 6 -11 -10 -48 70 -41 88 3 8 0 12 -8 9 -15 -6 -48 60 -40
81 4 10 0 15 -10 15 -14 0 -21 18 -17 43 0 4 -4 7 -11 7 -6 0 -9 3 -5 6 3 4
-2 14 -13 23 -10 9 -20 25 -22 36 -2 11 -6 22 -9 25 -7 5 -58 94 -87 150 -10
19 -29 53 -42 75 -14 22 -24 42 -24 45 1 3 -6 10 -15 17 -9 7 -12 13 -7 13 6
0 1 7 -10 15 -10 8 -14 15 -9 15 6 0 6 3 -1 8 -18 12 -74 118 -74 140 0 12 -9
26 -20 32 -12 7 -17 16 -13 27 4 11 3 14 -5 9 -11 -6 -17 12 -13 37 0 4 -3 7
-8 7 -10 0 -57 91 -53 103 1 5 -2 6 -8 2 -5 -3 -10 -2 -10 4 0 5 -11 23 -25
39 -13 16 -22 32 -18 36 3 3 1 6 -6 6 -7 0 -9 5 -6 10 3 6 2 10 -3 10 -6 0
-15 12 -21 28 -12 28 -42 84 -51 92 -3 3 -11 18 -18 33 -6 15 -19 30 -27 33
-8 4 -15 11 -15 17 0 9 -107 175 -121 187 -3 3 -9 12 -12 20 -4 8 -23 35 -42
60 -20 25 -38 53 -41 62 -4 10 -15 20 -25 23 -10 4 -19 13 -19 21 0 8 -9 22
-19 31 -11 9 -18 20 -15 25 3 4 1 8 -5 8 -5 0 -35 33 -65 73 -31 39 -60 77
-66 84 -5 7 -10 17 -10 22 0 5 -5 13 -12 17 -7 5 -8 3 -3 -6 5 -9 4 -11 -4 -6
-7 5 -16 19 -22 33 -5 14 -14 21 -21 17 -6 -4 -8 -3 -5 3 4 6 -4 18 -18 27
-14 9 -25 25 -25 36 0 10 -5 22 -12 26 -7 5 -9 2 -4 -7 4 -8 -2 -1 -15 14 -12
16 -45 53 -74 83 -29 30 -56 61 -59 70 -3 8 -11 12 -17 9 -6 -4 -13 2 -16 14
-3 14 -13 21 -29 21 -14 0 -24 6 -24 14 0 7 -10 20 -22 29 -13 8 -47 37 -75
64 -29 27 -55 48 -57 45 -3 -2 -12 8 -21 22 -10 14 -24 26 -32 26 -8 0 -11 5
-8 10 3 6 -1 10 -10 10 -9 0 -13 5 -10 10 3 6 0 10 -9 10 -8 0 -32 15 -53 34
-62 56 -80 71 -109 92 -15 10 -42 34 -60 52 -17 17 -35 32 -40 32 -5 0 -20 10
-34 23 -14 12 -40 29 -57 36 -18 7 -30 17 -27 22 3 5 -4 9 -15 9 -21 0 -61 32
-61 49 0 5 -9 7 -21 4 -14 -4 -22 0 -25 14 -3 10 -14 20 -26 20 -11 1 -26 10
-34 20 -7 10 -14 14 -14 10 0 -10 -60 25 -60 35 0 4 -7 8 -15 8 -17 0 -56 20
-66 33 -3 5 -10 9 -15 8 -5 0 -64 28 -132 61 -68 33 -125 58 -128 55 -5 -5
-28 10 -60 41 -8 7 -14 11 -14 8 0 -3 -13 0 -30 5 -16 6 -30 15 -30 19 0 4 -9
6 -20 3 -11 -3 -20 -1 -20 4 0 5 -16 15 -35 22 -19 7 -35 16 -35 20 0 10 -39
24 -57 22 -7 -1 -13 3 -13 10 0 7 -9 9 -23 6 -12 -4 -29 -2 -37 3 -8 5 -10 10
-5 11 6 0 -10 7 -35 14 -80 24 -124 43 -128 54 -2 6 -10 11 -19 11 -8 0 -21 6
-28 13 -35 31 -45 37 -60 37 -8 0 -15 5 -15 10 0 6 -3 9 -7 9 -27 -4 -55 3
-71 19 -9 9 -29 19 -42 20 -14 2 -26 8 -28 13 -2 5 -15 9 -28 9 -14 0 -27 7
-30 15 -4 8 -10 13 -14 10 -5 -3 -11 -1 -15 5 -4 6 -11 8 -16 5 -8 -5 -55 11
-102 36 -10 5 -22 7 -27 4 -6 -4 -10 1 -10 10 0 11 -5 15 -15 11 -17 -6 -85
23 -85 36 0 4 -18 8 -40 8 -29 0 -40 4 -40 15 0 8 -3 14 -7 13 -16 -4 -93 14
-99 23 -3 5 -14 9 -26 9 -19 0 -87 27 -98 39 -6 7 -29 13 -47 14 -7 0 -13 4
-13 9 0 5 -4 7 -8 4 -5 -3 -21 1 -36 9 -15 8 -30 14 -34 12 -4 -1 -20 3 -37
10 -56 21 -70 26 -75 28 -72 20 -130 41 -130 46 0 4 -13 10 -30 14 -16 4 -30
10 -30 14 0 3 -30 12 -67 19 -38 7 -72 17 -78 23 -5 5 -18 9 -30 9 -11 1 -38
8 -60 16 -22 9 -50 15 -63 15 -13 0 -21 2 -19 7 3 4 -9 7 -26 6 -18 0 -38 4
-44 9 -7 5 -68 11 -135 14 -68 2 -139 10 -158 16 -19 7 -48 13 -65 14 -16 1
-73 4 -125 7 -89 5 -138 10 -150 15 -6 2 -127 13 -150 14 -8 0 -48 -2 -88 -6
-80 -6 -137 5 -151 31 -6 11 -22 17 -49 17 -22 0 -39 2 -37 5 2 3 -12 4 -31 2
-21 -3 -34 0 -34 7 0 6 -4 11 -10 11 -5 0 -10 -3 -10 -8z m-2626 -2224 c-6
-21 11 -32 32 -20 11 6 13 11 5 16 -6 4 -11 2 -11 -4 0 -6 -5 -8 -10 -5 -26
16 7 27 69 22 79 -7 71 -5 71 -17 0 -5 -10 -10 -22 -11 -22 0 -22 -1 -3 -8 11
-5 23 -4 26 1 3 5 10 9 15 8 5 -1 10 4 13 11 2 7 -1 9 -8 5 -6 -4 -11 -2 -11
4 0 7 7 9 16 6 9 -3 27 -6 42 -6 25 0 25 -1 6 -14 -14 -11 -21 -11 -27 -3 -6
9 -7 8 -5 -2 2 -8 16 -15 31 -17 22 -2 27 2 28 19 0 21 1 21 8 2 5 -11 7 -23
5 -26 -2 -3 3 -6 10 -6 7 0 13 6 13 13 0 7 -5 10 -11 7 -6 -3 -7 -2 -3 2 11
12 36 15 42 5 3 -5 12 -7 19 -4 7 3 16 -2 19 -10 4 -9 14 -16 24 -15 16 0 16
1 -1 8 -31 12 -2 23 39 15 19 -3 32 -10 30 -15 -3 -4 -12 -6 -19 -3 -8 3 -17
-1 -22 -8 -4 -7 -4 -10 1 -6 4 4 17 3 28 -3 14 -8 18 -8 13 0 -5 7 4 9 26 5
24 -4 29 -3 18 4 -8 6 -18 8 -22 6 -4 -3 -8 0 -8 5 0 14 75 14 101 0 11 -6 34
-11 50 -11 27 -1 29 -3 15 -16 -12 -13 -18 -13 -31 -2 -13 11 -15 10 -10 -3
10 -24 44 -28 55 -6 11 19 40 27 40 9 0 -5 -8 -13 -17 -19 -16 -9 -15 -10 5
-8 12 1 22 5 22 9 0 4 9 8 21 8 11 0 17 -4 14 -10 -3 -5 -1 -10 4 -10 6 0 11
6 11 14 0 9 10 5 28 -12 26 -24 88 -39 75 -19 -3 5 -13 7 -23 4 -11 -3 -21 2
-25 10 -4 13 1 14 27 9 18 -4 39 -9 46 -10 7 -1 12 -6 11 -12 0 -5 -5 -8 -11
-6 -5 1 -7 -2 -3 -7 7 -12 35 -3 35 10 0 5 5 9 11 9 6 0 9 -7 5 -15 -3 -8 0
-14 7 -12 7 1 11 -5 9 -13 -2 -11 1 -11 12 3 13 16 15 16 30 2 8 -9 18 -15 21
-15 14 1 62 -15 81 -27 12 -8 26 -13 30 -12 22 4 44 -2 44 -12 0 -6 -7 -8 -17
-4 -14 5 -15 4 -6 -6 10 -10 15 -9 27 0 13 11 20 8 41 -13 14 -14 29 -25 33
-24 8 1 15 -1 134 -50 48 -20 84 -40 81 -45 -3 -4 1 -7 8 -6 24 5 60 -12 53
-24 -5 -9 -4 -9 6 0 17 16 40 5 33 -15 -4 -14 -3 -14 5 -3 14 20 76 -5 67 -27
-4 -12 -3 -12 9 -3 11 9 17 8 29 -3 8 -8 17 -12 21 -9 5 6 10 -11 8 -28 -1 -4
7 -5 17 -2 11 3 28 -4 39 -15 11 -11 28 -22 38 -24 9 -1 18 -10 20 -18 4 -27
23 -65 24 -50 0 12 3 11 14 -3 9 -12 16 -14 21 -8 10 18 45 13 39 -4 -5 -12
-10 -13 -20 -4 -10 8 -13 6 -11 -10 1 -24 8 -26 25 -9 12 12 13 10 16 -14 0
-6 8 -14 16 -16 11 -4 11 0 -3 21 -10 15 -13 27 -7 27 5 0 10 -4 10 -10 0 -5
7 -10 15 -10 8 0 15 -7 15 -16 0 -8 4 -13 9 -10 17 11 42 -6 36 -22 -3 -9 -3
-13 1 -9 4 4 18 -2 30 -14 l22 -21 -19 -35 c-11 -19 -15 -32 -9 -28 5 3 13 -1
16 -9 3 -9 11 -16 16 -16 6 0 7 8 3 18 -12 31 -14 52 -4 52 5 0 9 -12 10 -27
l1 -28 7 25 c7 24 7 24 21 4 8 -11 24 -24 35 -28 16 -6 17 -9 5 -16 -23 -15
-27 -12 -35 17 -5 21 -8 24 -15 12 -6 -8 -6 -15 0 -17 6 -2 10 -10 10 -18 0
-8 6 -14 14 -14 19 0 27 -25 13 -39 -9 -9 -8 -10 7 -5 16 6 18 4 13 -9 -6 -15
-3 -16 13 -7 20 10 19 12 -6 37 -17 17 -23 28 -15 31 15 5 51 -26 51 -45 0 -7
6 -13 14 -13 8 0 18 -5 21 -10 4 -7 -4 -9 -24 -5 -16 3 -33 0 -36 -6 -4 -6 -1
-10 6 -8 29 3 50 -1 44 -11 -3 -6 4 -10 17 -10 19 0 20 2 8 11 -13 9 -13 10 0
6 8 -2 14 -10 12 -16 -1 -6 2 -11 8 -11 5 0 10 -7 10 -15 0 -8 -5 -15 -11 -15
-5 0 -8 4 -5 9 8 12 -18 21 -33 12 -17 -11 30 -34 80 -40 12 -2 6 -51 -6 -51
-6 0 -12 -7 -12 -15 0 -8 5 -15 10 -15 5 0 7 -7 3 -15 -3 -9 0 -15 9 -15 8 0
15 -6 16 -12 0 -10 2 -10 6 0 2 6 11 12 19 12 8 0 14 8 14 17 0 26 11 8 16
-26 4 -25 2 -30 -10 -25 -11 4 -16 0 -16 -10 0 -13 4 -15 19 -7 10 6 22 7 26
3 5 -4 5 -1 1 6 -4 6 -2 12 4 12 7 0 9 -8 5 -21 -5 -14 0 -27 15 -42 21 -18
21 -21 7 -32 -9 -7 -13 -15 -9 -19 4 -4 7 -22 7 -38 0 -17 5 -33 10 -35 6 -2
9 16 7 44 -3 45 -2 47 13 28 9 -11 21 -38 27 -60 7 -22 17 -43 23 -47 5 -4 6
-8 2 -8 -5 0 1 -13 12 -29 23 -31 27 -46 11 -36 -5 3 -10 -3 -10 -14 0 -14 6
-21 20 -21 27 0 52 -49 38 -74 -8 -14 -7 -17 1 -12 12 8 62 -92 60 -122 0 -10
-3 -12 -6 -4 -2 6 -12 12 -21 12 -11 0 -7 -7 13 -20 28 -19 29 -20 7 -20 -13
0 -21 -4 -18 -9 3 -5 15 -7 26 -4 17 5 19 1 15 -32 -3 -20 -1 -34 3 -31 7 4 8
-83 1 -109 -1 -5 0 -17 4 -25 11 -30 14 -69 5 -72 -5 -2 -6 -11 -3 -21 4 -9
10 -15 14 -13 3 2 11 -6 17 -19 11 -22 10 -24 -15 -21 -14 2 -20 1 -13 -1 6
-2 12 -12 12 -21 0 -15 2 -15 10 -2 10 16 12 13 14 -33 2 -21 -2 -27 -14 -24
-11 3 -16 -3 -17 -17 -1 -12 1 -15 4 -8 10 25 31 13 27 -15 -3 -16 -5 -34 -6
-40 -1 -7 -5 -13 -10 -13 -4 0 -7 -3 -7 -7 1 -5 0 -10 -1 -13 -8 -21 -6 -40 3
-41 7 0 3 -5 -8 -10 l-20 -9 20 3 c14 2 20 9 19 25 -1 12 3 22 8 22 5 0 6 5 2
12 -4 7 -3 8 5 4 9 -6 10 0 5 20 -5 18 -3 25 4 20 5 -3 8 -18 6 -34 -2 -15 -4
-53 -4 -84 -1 -46 -4 -56 -16 -51 -9 3 -24 -4 -35 -16 -11 -11 -16 -21 -10
-21 5 0 8 -11 6 -25 -1 -14 1 -25 5 -25 4 0 12 -10 17 -22 10 -22 10 -22 10 4
0 15 -3 25 -8 22 -16 -9 -9 20 9 44 18 23 18 22 16 -43 -3 -75 -7 -84 -29 -65
-9 7 -18 10 -22 6 -3 -3 0 -6 7 -6 9 0 8 -5 -4 -19 -18 -20 -5 -24 22 -7 8 5
18 3 25 -4 9 -10 9 -11 0 -6 -9 5 -13 -3 -14 -28 -1 -20 -3 -40 -4 -46 -1 -5
-3 -13 -4 -17 0 -4 -7 1 -14 12 -13 16 -14 15 -12 -14 1 -21 -3 -35 -12 -38
-12 -5 -12 -7 -2 -14 18 -11 28 -2 24 21 -2 11 1 20 7 20 6 0 8 -10 3 -27 -3
-16 -7 -38 -7 -51 0 -22 -1 -22 -19 -6 -24 21 -25 2 -2 -22 13 -13 14 -19 5
-22 -7 -2 -10 -7 -7 -12 3 -4 1 -19 -4 -32 -9 -21 -10 -21 -11 -3 0 17 -2 17
-10 5 -5 -8 -10 -10 -10 -4 0 7 -7 14 -15 18 -12 4 -13 2 -2 -14 6 -11 19 -23
29 -26 13 -4 15 -11 8 -34 -4 -16 -6 -31 -2 -34 3 -3 1 -6 -5 -6 -12 0 -26 46
-18 59 3 5 -1 11 -8 14 -8 3 -12 -5 -12 -23 0 -16 3 -26 8 -23 4 2 7 -5 7 -15
0 -11 8 -23 18 -27 16 -7 15 -8 -3 -15 -11 -5 -15 -9 -9 -9 16 -1 8 -52 -20
-135 -14 -39 -27 -83 -29 -97 -6 -30 -28 -69 -40 -69 -4 0 -6 4 -2 9 3 5 0 13
-7 17 -7 4 -10 3 -5 -1 4 -5 0 -16 -9 -26 -10 -11 -12 -19 -5 -24 6 -3 11 2
11 12 1 17 1 17 11 0 8 -13 6 -30 -6 -65 -30 -85 -79 -182 -92 -182 -7 0 -13
5 -13 10 0 7 -5 6 -13 -1 -16 -15 -19 -49 -7 -64 10 -12 8 -40 -3 -51 -7 -7
-11 9 -8 33 1 6 -3 14 -9 18 -6 3 -7 0 -4 -9 3 -9 2 -16 -3 -16 -5 0 -10 -7
-10 -15 0 -8 4 -12 9 -9 11 7 10 -9 -2 -41 -6 -15 -15 -23 -21 -20 -6 4 -10 1
-8 -6 4 -34 -1 -48 -17 -42 -10 4 -15 1 -13 -8 4 -25 -13 -69 -27 -69 -8 0
-14 -8 -14 -17 0 -15 -2 -16 -10 -3 -8 12 -10 11 -10 -6 0 -28 -9 -35 -30 -24
-12 6 -17 5 -17 -6 0 -7 7 -14 14 -14 11 0 11 -3 1 -14 -11 -11 -15 -11 -26 3
-11 14 -11 12 -2 -8 9 -18 9 -29 -1 -47 -7 -13 -16 -24 -20 -24 -4 0 -10 -12
-14 -27 -7 -32 -52 -83 -72 -83 -7 0 -13 -9 -13 -19 0 -22 -19 -39 -21 -19 -1
7 -1 17 0 21 1 5 -3 6 -9 2 -6 -4 -8 -16 -4 -28 3 -12 3 -19 -1 -15 -4 4 -20
-1 -35 -12 -16 -12 -36 -18 -47 -14 -17 5 -17 4 1 -10 17 -13 22 -14 35 -2 26
22 41 28 41 17 0 -6 -7 -11 -15 -11 -8 0 -22 -14 -30 -30 -23 -44 -47 -70 -58
-63 -6 3 -7 1 -3 -5 4 -7 -8 -26 -28 -46 -19 -18 -32 -36 -29 -40 4 -3 1 -6
-4 -6 -6 0 -13 3 -16 8 -2 4 -2 2 -1 -5 2 -7 -4 -19 -12 -28 -13 -12 -19 -13
-30 -4 -9 7 -14 8 -14 1 0 -6 6 -12 13 -15 7 -2 -2 -18 -25 -43 -21 -21 -38
-42 -38 -46 0 -4 -9 -8 -20 -8 -18 0 -25 -16 -21 -42 0 -5 -3 -8 -9 -8 -5 0
-32 -22 -59 -48 -40 -39 -55 -48 -80 -46 -17 1 -29 -2 -26 -7 3 -4 12 -6 20
-2 8 3 15 0 15 -6 0 -6 -9 -11 -21 -11 -12 0 -18 -4 -13 -11 4 -7 -15 -31 -44
-58 -51 -46 -72 -58 -72 -43 0 5 -7 9 -16 9 -15 0 -15 -2 1 -13 16 -12 15 -16
-17 -49 -19 -20 -40 -37 -48 -38 -8 -2 -21 -6 -27 -10 -8 -5 -13 -4 -13 2 0 6
-5 11 -11 11 -5 0 -8 -4 -4 -9 3 -5 1 -12 -5 -16 -5 -3 -10 -11 -10 -18 0 -6
7 -2 15 9 8 10 15 15 15 10 0 -5 7 -3 15 4 8 7 15 8 15 3 0 -22 -114 -98 -135
-89 -10 4 -15 -1 -15 -14 0 -20 -21 -25 -90 -22 -23 1 -23 1 -5 -8 18 -8 17
-10 -12 -21 -18 -8 -33 -17 -33 -21 0 -4 -9 -8 -20 -8 -11 0 -20 -4 -20 -10 0
-5 -11 -12 -25 -16 -14 -3 -22 -11 -18 -17 4 -6 -1 -8 -14 -5 -15 4 -20 1 -19
-11 1 -10 -8 -17 -26 -19 -16 -2 -28 -8 -28 -13 0 -6 -4 -8 -9 -5 -5 3 -20 -6
-34 -20 -14 -14 -30 -23 -36 -20 -5 3 -11 2 -13 -4 -1 -5 -15 -11 -30 -12 -16
-1 -28 -6 -28 -10 0 -4 -7 -8 -16 -8 -8 0 -35 -12 -60 -26 -39 -23 -43 -28
-33 -46 10 -19 9 -20 -10 -15 -12 3 -19 1 -15 -4 3 -5 12 -9 20 -9 8 0 14 -5
14 -11 0 -6 -6 -9 -14 -6 -10 4 -14 0 -13 -13 1 -14 4 -16 14 -8 9 7 14 6 18
-6 3 -9 7 -23 10 -31 2 -8 0 -15 -5 -15 -6 0 -10 7 -10 15 0 8 -4 15 -9 15 -4
0 -6 -11 -3 -25 2 -14 8 -22 13 -19 5 3 14 2 20 -2 8 -4 7 -9 -2 -15 -11 -7
-10 -9 4 -9 14 0 17 -5 12 -21 -5 -14 -3 -19 3 -15 6 4 10 -1 10 -11 -1 -22
11 -83 18 -95 3 -5 1 -15 -6 -23 -8 -10 -8 -15 3 -22 7 -4 28 -51 46 -103 19
-52 38 -101 43 -107 6 -7 7 -13 2 -13 -5 0 -4 -4 1 -8 9 -7 19 -28 50 -112 7
-19 20 -36 29 -38 15 -3 20 -17 19 -49 -1 -7 4 -13 11 -13 6 0 4 -5 -4 -10
-13 -9 -13 -10 0 -11 8 -1 19 -1 24 0 5 1 6 -6 2 -15 -4 -11 -2 -15 8 -11 8 3
16 -2 19 -13 7 -27 -3 -33 -20 -12 -13 15 -13 15 -3 -5 6 -13 18 -23 26 -23 9
0 14 -7 12 -17 -2 -10 4 -26 13 -37 10 -10 15 -24 12 -32 -3 -8 0 -14 7 -14 7
0 9 -8 5 -21 -5 -13 2 -33 19 -59 14 -22 26 -46 26 -54 0 -8 5 -18 11 -21 6
-4 8 -13 5 -21 -3 -8 0 -13 7 -11 8 1 11 -8 9 -26 -2 -21 0 -27 9 -21 8 4 9 3
5 -4 -4 -7 -2 -12 4 -12 7 0 9 -7 6 -17 -4 -10 -4 -14 0 -11 12 13 37 -21 26
-35 -8 -9 -8 -17 0 -27 8 -12 9 -12 4 3 -9 28 18 20 42 -13 12 -16 22 -35 21
-42 0 -10 -2 -10 -6 0 -2 6 -9 12 -15 12 -6 0 -6 -6 2 -15 7 -8 18 -15 26 -15
13 0 12 -28 -2 -53 -4 -6 2 -4 13 6 23 20 36 22 31 5 -3 -7 8 -24 23 -39 22
-22 25 -28 13 -33 -10 -4 -12 -2 -8 6 4 6 3 8 -4 4 -6 -3 -15 2 -21 11 -8 14
-10 15 -10 3 0 -20 51 -58 57 -42 2 7 8 12 13 12 6 0 8 -4 4 -9 -3 -5 -1 -12
5 -16 5 -3 10 -11 10 -16 0 -6 -4 -8 -8 -5 -4 2 -8 -5 -9 -17 0 -12 1 -16 4
-9 6 15 30 16 39 0 5 -8 2 -9 -10 -5 -12 5 -16 3 -14 -5 3 -7 13 -13 23 -13
22 0 32 -21 13 -28 -7 -2 -4 -3 6 -1 20 3 46 -12 46 -27 0 -4 -8 -6 -18 -4
-13 2 -18 -2 -17 -16 1 -10 5 -22 9 -26 4 -5 6 -1 4 7 -2 8 3 15 10 14 6 -1
18 -2 26 -2 16 -2 32 -40 21 -50 -4 -4 -13 1 -20 11 -13 18 -14 18 -25 -5 -10
-18 -10 -20 0 -12 9 9 20 3 44 -22 33 -34 46 -41 46 -26 0 5 -12 15 -27 22
-16 7 -23 15 -16 17 7 2 22 -5 35 -16 12 -12 27 -21 32 -21 6 0 4 -5 -4 -10
-9 -6 -10 -10 -3 -10 6 0 19 -7 28 -16 13 -13 13 -19 3 -33 -12 -14 -11 -15 5
-2 14 11 21 11 29 3 9 -9 8 -12 -5 -12 -9 0 -17 -4 -17 -10 0 -5 6 -7 14 -4
16 6 58 -25 50 -38 -3 -5 0 -7 7 -6 6 2 14 -3 17 -11 2 -8 0 -11 -6 -7 -5 3
-12 -1 -15 -9 -4 -10 -1 -12 10 -8 13 5 15 2 10 -11 -4 -10 -3 -15 3 -11 6 3
10 13 10 20 0 9 6 12 16 8 10 -4 12 -9 5 -16 -12 -12 -3 -39 11 -31 6 4 5 10
-3 15 -11 7 -11 9 1 8 15 0 76 -78 72 -91 -1 -5 2 -8 7 -8 8 0 53 -36 100 -80
9 -8 29 -22 45 -30 15 -8 22 -16 16 -18 -7 -3 -16 1 -20 8 -5 9 -9 9 -14 1 -4
-6 -12 -8 -18 -5 -6 4 -8 3 -5 -2 3 -5 20 -11 38 -12 41 -3 59 -18 59 -48 0
-13 3 -23 8 -23 13 2 27 -1 42 -11 13 -8 12 -11 -5 -25 -11 -9 -14 -14 -7 -10
6 3 12 1 12 -5 0 -6 6 -17 13 -24 10 -12 15 -12 28 0 15 13 19 13 32 -1 17
-17 32 -20 22 -5 -14 22 7 7 53 -37 27 -27 57 -54 68 -61 17 -12 17 -12 -9 -9
-18 3 -25 1 -19 -5 5 -5 18 -11 28 -12 11 -2 18 -11 18 -20 -1 -9 5 -16 12
-16 12 0 12 4 4 21 -7 11 -10 23 -8 25 8 8 48 -37 48 -54 0 -14 2 -14 9 -3 5
7 14 10 20 7 6 -4 9 -12 6 -17 -3 -5 1 -6 9 -3 8 3 25 -4 38 -16 13 -12 35
-27 51 -32 25 -9 38 -28 18 -28 -20 0 -18 -26 3 -27 11 0 15 1 7 4 -11 4 -11
7 0 13 13 9 99 -29 132 -58 9 -8 17 -12 17 -9 0 6 31 -12 86 -51 17 -11 17
-12 2 -8 -31 9 -20 -9 13 -21 26 -10 29 -10 18 3 -6 8 -9 17 -5 21 3 3 6 1 6
-5 0 -7 8 -12 18 -12 13 0 17 8 16 33 -1 19 -4 39 -8 45 -4 7 -2 12 5 12 6 0
9 8 6 20 -3 11 -2 20 2 20 4 0 5 14 3 31 -3 22 -1 30 7 25 6 -4 9 -12 6 -17
-3 -5 1 -6 10 -3 14 6 13 10 -6 30 -17 18 -19 26 -10 38 6 7 13 42 14 77 1 41
6 64 14 64 6 0 15 3 19 8 4 4 0 7 -8 7 -23 0 -22 70 1 71 15 1 15 2 0 6 -15 4
-16 9 -2 56 8 29 14 70 14 91 -1 21 5 46 12 54 6 9 7 13 2 10 -7 -4 -9 9 -5
40 4 40 8 47 25 44 19 -2 19 -2 2 12 -18 14 -19 58 -2 85 3 6 9 39 13 74 4 36
11 60 17 57 6 -3 9 -9 7 -15 -2 -5 2 -4 10 3 10 10 10 15 1 20 -28 17 37 284
71 290 9 2 16 10 16 18 0 7 11 16 24 20 14 3 27 12 30 20 3 8 12 14 21 14 17
0 66 28 77 45 7 10 35 16 76 15 12 0 22 6 22 13 0 7 10 18 23 26 21 13 21 13
7 -4 -14 -17 -13 -18 10 -12 14 4 31 7 38 7 6 0 12 6 12 14 0 23 24 25 37 2
10 -17 12 -18 13 -4 0 15 34 35 53 30 4 -1 7 3 7 9 0 6 -7 9 -15 5 -8 -3 -15
-2 -15 3 0 13 40 21 41 8 0 -8 2 -8 6 1 2 6 9 12 14 12 6 0 7 -4 4 -10 -3 -5
1 -10 10 -10 9 0 14 4 11 8 -2 4 -1 14 5 22 6 10 9 11 9 3 0 -7 5 -13 11 -13
5 0 7 5 4 10 -4 6 8 10 27 11 18 0 43 2 55 5 14 2 23 -2 26 -14 3 -9 5 -4 6
13 1 22 4 26 10 15 6 -8 8 -17 5 -21 -2 -4 3 -12 10 -18 10 -8 16 -9 21 -1 3
6 11 8 16 5 5 -4 9 -1 9 4 0 6 -6 12 -12 12 -7 1 1 4 17 8 22 5 30 12 28 26
-2 21 15 37 30 28 4 -2 4 -10 -2 -17 -7 -8 -5 -12 8 -12 11 0 17 6 14 12 -2 7
5 18 18 24 28 16 128 29 135 18 3 -4 -2 -9 -10 -9 -25 -2 -30 -4 -43 -12 -8
-5 -13 -3 -13 4 0 9 -4 9 -15 -1 -8 -6 -18 -9 -23 -6 -6 3 -15 -1 -22 -10 -12
-13 -10 -14 13 -10 15 2 28 -1 30 -7 3 -8 10 -7 22 4 15 15 21 15 43 3 27 -14
42 -11 42 9 0 7 -4 6 -11 -3 -9 -13 -10 -13 -6 0 2 10 15 14 35 13 25 -1 30 2
27 18 -5 24 11 24 58 -1 20 -11 46 -20 56 -20 11 0 23 -4 26 -10 3 -5 12 -10
20 -10 16 0 101 -55 111 -72 11 -17 7 -202 -4 -206 -5 -1 -8 -12 -5 -22 3 -13
0 -20 -8 -20 -11 0 -11 -2 1 -10 8 -5 11 -10 5 -10 -5 0 -11 -24 -13 -52 -2
-29 -7 -55 -12 -58 -4 -3 -6 -29 -5 -57 2 -44 0 -53 -14 -54 -10 0 -11 -2 -3
-6 6 -2 12 -11 12 -19 0 -9 -3 -13 -7 -11 -5 3 -9 -15 -10 -40 -1 -25 -9 -68
-17 -97 -9 -28 -18 -77 -22 -109 -4 -31 -10 -57 -14 -57 -5 0 -6 -10 -2 -22 5
-21 4 -22 -14 -8 -18 14 -18 14 -4 -4 8 -10 16 -30 18 -43 2 -22 0 -25 -17
-20 -12 3 -21 1 -21 -4 0 -5 10 -9 23 -9 15 0 18 -3 9 -9 -8 -5 -11 -19 -7
-41 4 -23 1 -38 -12 -53 -10 -11 -12 -17 -4 -12 9 5 12 3 9 -6 -3 -8 -11 -13
-17 -11 -6 1 -11 -2 -11 -8 0 -5 5 -10 10 -10 6 0 10 -18 10 -40 0 -35 -3 -40
-22 -39 -13 0 -17 3 -10 6 6 2 12 12 12 21 0 13 -3 12 -14 -4 -9 -12 -11 -23
-5 -30 5 -6 5 -15 1 -20 -4 -4 1 -2 11 5 9 8 21 11 24 7 4 -4 2 -10 -4 -14 -6
-4 -10 -23 -9 -42 3 -41 -3 -62 -15 -54 -5 3 -9 -2 -9 -11 0 -9 5 -13 10 -10
6 3 10 -1 10 -9 0 -9 -7 -16 -15 -16 -8 0 -15 -5 -15 -11 0 -5 5 -7 10 -4 11
7 2 -45 -9 -55 -3 -3 -6 -21 -7 -40 0 -19 -4 -62 -8 -95 -4 -36 -4 -55 2 -47
6 9 21 11 50 6 27 -4 42 -3 42 4 0 5 -9 8 -20 5 -12 -3 -20 0 -20 7 0 8 9 11
26 7 14 -2 41 -1 60 3 19 5 32 4 28 -1 -3 -5 0 -9 5 -9 6 0 11 5 11 10 0 18
20 11 21 -7 0 -15 1 -16 7 -2 5 10 22 16 52 17 55 1 100 8 160 23 25 6 55 11
67 10 12 0 25 4 29 11 4 7 3 8 -4 4 -7 -4 -12 -2 -12 3 0 14 17 14 25 1 8 -13
35 -13 35 0 0 5 -8 7 -17 3 -17 -6 -17 -5 0 13 15 16 20 17 38 6 18 -12 19
-11 10 6 -9 18 -4 23 47 48 31 16 60 33 63 38 4 5 18 9 33 9 14 0 26 4 26 9 0
5 4 7 9 4 5 -3 11 1 15 9 3 8 12 15 21 15 8 0 15 6 15 13 0 8 12 12 35 12 19
-1 32 2 29 7 -5 8 8 11 41 9 15 -2 17 0 6 7 -11 8 -9 11 8 17 11 3 25 3 31 0
6 -4 9 -2 8 3 -5 15 79 94 85 80 3 -8 6 -6 6 5 1 20 79 97 99 97 7 0 11 4 7 9
-3 5 4 12 15 16 11 3 20 11 20 16 0 5 7 9 15 9 8 0 15 6 15 13 0 18 36 51 48
43 4 -3 8 5 8 17 -1 15 5 22 16 21 10 -1 14 4 11 12 -3 8 0 14 6 14 6 0 11 6
11 14 0 8 9 18 20 21 11 3 20 11 20 16 0 6 5 7 12 3 7 -5 9 -2 5 8 -6 18 25
52 38 41 4 -5 5 0 2 9 -3 9 1 22 11 30 11 9 14 9 8 1 -5 -9 -2 -11 9 -7 10 4
13 13 10 24 -4 12 2 24 17 34 12 9 19 16 15 16 -4 0 -3 9 3 20 6 11 18 20 26
20 8 0 12 5 9 10 -3 6 -2 10 4 10 6 0 7 8 4 18 -6 14 -4 15 8 5 13 -10 15 -8
13 17 -1 17 4 31 12 34 8 3 14 15 14 27 0 16 5 20 20 16 11 -3 20 -1 20 4 0 5
-4 9 -10 9 -5 0 -2 16 7 35 11 24 20 32 27 25 5 -5 15 -10 21 -10 5 0 2 5 -7
11 -18 10 -25 39 -10 39 10 0 46 81 43 98 -1 6 3 12 9 12 5 0 10 7 10 16 0 8
7 22 15 30 8 8 12 21 8 29 -6 17 15 47 27 40 5 -3 11 -1 15 5 3 5 -1 10 -10
10 -11 0 -14 7 -11 23 24 111 30 144 29 155 0 6 2 12 6 12 4 0 8 12 9 27 1 15
8 30 15 35 9 6 9 8 -2 8 -10 0 -11 3 -2 14 6 8 11 18 10 22 -5 31 3 64 16 64
8 0 15 5 15 11 0 6 -6 9 -13 6 -10 -4 -12 4 -10 29 1 19 5 39 8 44 3 6 2 10
-2 10 -5 0 -8 41 -7 91 0 50 -5 120 -12 155 -8 47 -9 64 0 64 7 0 7 3 -1 8 -7
5 -14 20 -15 35 -1 15 -5 27 -8 27 -6 0 -31 79 -30 93 0 4 -6 15 -15 23 -8 9
-13 20 -10 24 3 5 -15 38 -40 74 -25 36 -45 68 -45 73 0 4 -18 21 -40 38 -24
17 -38 35 -35 43 2 7 0 10 -5 7 -8 -5 -112 55 -147 85 -7 5 -16 10 -20 10 -12
-1 -157 74 -164 84 -4 5 -15 6 -24 2 -11 -4 -26 1 -38 11 -11 10 -17 12 -13 6
10 -17 -22 -17 -55 1 -14 7 -40 12 -57 11 -18 -1 -32 1 -32 4 0 4 -19 6 -41 6
-23 0 -53 5 -66 12 -13 7 -21 8 -18 3 4 -6 -11 -9 -34 -8 -23 1 -41 5 -41 10
0 4 5 8 12 8 6 0 8 3 4 7 -4 5 -14 0 -21 -11 -11 -14 -21 -17 -42 -11 -26 7
-26 8 -8 15 19 8 19 9 -2 9 -14 1 -23 -5 -23 -14 0 -13 -18 -15 -110 -14 -60
0 -114 -2 -119 -5 -5 -4 -12 -2 -16 4 -3 5 -12 10 -18 10 -7 0 -6 -4 3 -10 12
-8 11 -10 -7 -10 -13 0 -23 -4 -23 -8 0 -5 -28 -8 -62 -8 -45 1 -62 5 -60 14
3 15 -34 16 -43 1 -4 -6 -1 -9 7 -7 7 2 16 -1 18 -7 3 -6 -17 -13 -45 -17 -27
-4 -68 -10 -90 -13 -29 -5 -36 -3 -25 4 8 5 12 13 8 16 -3 4 -16 -3 -27 -14
-25 -25 -81 -40 -81 -22 0 6 -4 11 -10 11 -5 0 -7 -6 -4 -13 3 -8 -5 -13 -22
-15 -15 -1 -32 -6 -38 -11 -14 -11 -132 -51 -151 -51 -7 0 -19 8 -25 18 -9 14
-10 12 -5 -11 3 -18 2 -26 -4 -23 -5 4 -12 2 -16 -4 -3 -5 -12 -10 -18 -10 -7
0 -4 7 6 14 22 17 22 46 1 46 -14 0 -14 -3 -4 -15 10 -12 10 -15 -4 -15 -9 0
-16 -7 -16 -15 0 -8 -5 -15 -11 -15 -6 0 -9 6 -6 14 4 10 0 14 -12 13 -10 0
-18 -7 -18 -14 0 -6 5 -9 11 -6 6 3 4 -2 -5 -12 -10 -10 -32 -17 -55 -17 -21
0 -47 -6 -58 -14 -11 -8 -39 -14 -63 -14 -23 0 -45 -5 -49 -11 -3 -6 -19 -9
-35 -7 -15 3 -27 0 -26 -6 1 -5 -5 -10 -13 -11 -9 0 -29 -12 -45 -27 -16 -15
-33 -24 -38 -21 -6 3 -7 1 -4 -4 8 -12 -34 -43 -58 -43 -8 0 -15 -5 -15 -11 0
-6 -9 -9 -19 -6 -10 2 -25 0 -32 -5 -11 -8 -10 -9 3 -4 10 3 20 1 23 -4 6 -10
2 -12 -53 -14 -18 -1 -37 -7 -43 -13 -6 -6 -17 -9 -24 -7 -7 3 -20 -4 -28 -16
-12 -17 -15 -18 -20 -5 -4 8 -12 15 -19 14 -10 0 -10 -2 0 -6 18 -7 15 -40 -5
-47 -38 -15 -203 97 -203 138 0 9 -4 15 -8 12 -9 -5 -99 163 -95 176 2 5 -2 8
-9 8 -6 0 -9 3 -5 6 3 4 -1 13 -9 21 -8 8 -12 18 -9 23 3 4 -2 11 -11 14 -9 4
-14 9 -11 12 3 4 0 13 -8 21 -17 17 -20 43 -4 43 5 0 7 5 4 10 -4 6 -10 8 -15
5 -10 -6 -32 29 -24 38 3 3 -2 14 -12 26 -28 32 -65 141 -49 147 7 3 10 15 7
31 -4 20 -2 24 9 19 8 -4 7 -2 -2 6 -9 7 -18 20 -22 28 -3 8 -3 -7 -1 -33 2
-32 0 -46 -7 -42 -5 4 -9 14 -8 23 1 10 0 19 -1 22 -7 20 -7 46 1 66 7 19 4
29 -11 44 -10 10 -26 30 -35 43 -15 23 -15 26 0 41 9 9 22 13 28 9 7 -4 6 1
-2 11 -13 15 -13 19 0 27 11 7 11 9 -3 9 -10 0 -18 5 -18 11 0 5 6 7 13 3 6
-4 9 -4 5 1 -4 4 -3 14 2 20 7 9 6 16 -5 25 -13 11 -14 10 -10 -2 3 -8 0 -20
-7 -26 -10 -8 -13 1 -12 48 0 33 -3 64 -6 71 -9 13 10 79 22 79 4 0 8 6 8 13
1 28 38 57 74 57 37 0 44 8 26 26 -8 8 -6 15 5 24 9 7 15 8 15 2 0 -6 -6 -12
-12 -15 -9 -3 -8 -7 4 -12 11 -4 27 1 44 14 15 12 22 21 16 21 -6 0 -14 -4
-17 -10 -12 -20 -26 -10 -15 11 7 12 18 18 26 15 8 -3 12 -2 9 3 -6 11 7 21
36 26 15 3 19 0 15 -10 -3 -8 -1 -15 4 -15 6 0 10 7 10 15 0 8 5 15 11 15 5 0
8 4 5 8 -3 5 10 16 29 25 29 14 34 14 39 1 3 -8 11 -14 18 -13 10 0 10 2 1 6
-7 2 -13 12 -13 20 0 15 2 15 18 0 26 -24 70 -29 68 -9 -1 13 6 16 27 15 23
-1 27 2 27 24 0 18 4 24 14 20 9 -4 17 1 19 11 3 12 5 11 6 -5 1 -29 13 -34
31 -15 13 14 12 15 -2 9 -12 -4 -16 -1 -15 14 2 23 15 24 39 2 17 -15 18 -15
18 0 0 10 -5 17 -11 17 -5 0 -7 5 -4 10 3 6 18 7 32 4 17 -5 24 -3 20 3 -4 6
3 13 16 17 33 9 49 7 42 -4 -3 -6 1 -7 9 -4 19 7 21 24 4 25 -7 0 -4 4 7 9 31
13 37 11 25 -9 -13 -26 2 -34 26 -15 14 11 15 17 7 20 -7 3 -13 12 -13 20 0
13 5 15 43 18 6 1 11 -5 9 -12 -1 -8 2 -11 8 -7 6 4 9 13 6 20 -4 13 10 22 48
30 6 1 24 7 39 13 36 15 44 15 49 0 3 -8 12 -4 26 10 12 12 30 22 40 22 15 0
15 2 2 11 -12 9 -11 10 6 6 12 -2 28 0 37 4 8 5 44 11 80 14 36 3 75 9 88 14
13 5 53 12 89 16 36 4 75 13 87 21 14 9 59 15 132 16 61 2 111 7 111 11 0 5
10 7 23 5 12 -2 21 -9 20 -16 -2 -6 2 -12 7 -12 6 0 10 7 10 16 0 13 8 15 40
12 25 -2 40 1 40 8 0 7 35 14 95 18 52 3 102 9 111 13 13 5 15 3 9 -8 -7 -11
-5 -11 10 1 17 14 18 13 12 -2 -4 -11 -2 -18 6 -18 8 0 7 -4 -3 -11 -13 -9
-13 -10 0 -6 9 2 14 13 12 29 -2 17 2 25 13 25 18 0 20 -13 3 -20 -9 -4 -10
-6 -1 -6 6 -1 18 6 27 14 8 8 31 15 50 15 36 0 43 -7 29 -26 -5 -5 -1 -2 7 6
15 16 100 24 100 10 0 -5 -5 -10 -11 -12 -7 -2 -10 -10 -8 -17 4 -11 9 -10 22
3 9 10 15 22 11 27 -3 5 5 7 18 5 13 -2 22 -10 20 -17 -1 -8 4 -7 12 4 11 15
18 16 34 8 15 -8 22 -8 25 2 3 7 6 4 6 -6 1 -13 -4 -17 -17 -13 -12 4 -19 1
-19 -6 0 -17 55 -17 62 0 3 7 0 10 -5 7 -6 -3 -10 1 -10 10 0 14 4 13 26 -4
21 -16 30 -18 40 -10 11 9 14 7 14 -9 0 -12 5 -24 10 -27 7 -4 8 3 4 20 -6 24
-4 26 20 22 15 -1 26 -7 26 -13 -1 -5 -8 -8 -17 -6 -13 3 -13 1 -2 -11 10 -11
16 -12 22 -3 5 8 10 7 18 -4 8 -12 9 -10 4 8 -5 16 -2 22 9 22 9 0 17 -7 17
-15 3 -29 4 -33 13 -42 5 -4 6 3 2 19 -4 16 -1 30 6 34 7 5 9 2 5 -8 -3 -9 1
-24 9 -35 14 -17 15 -16 11 9 -3 18 0 25 7 21 6 -4 23 -6 37 -5 15 1 34 -5 43
-14 9 -8 16 -11 16 -5 0 6 7 8 16 4 16 -6 39 -9 80 -12 13 0 24 -10 27 -21 3
-11 11 -20 19 -19 10 0 10 2 1 6 -21 8 -14 20 10 18 145 -18 157 -22 157 -51
0 -16 6 -24 18 -24 9 0 13 4 7 8 -5 4 -11 13 -13 21 -2 11 7 12 45 6 56 -8 90
-23 58 -26 -31 -2 -50 2 -53 12 -2 5 -11 9 -20 8 -11 0 -12 -2 -4 -6 6 -2 9
-10 6 -15 -4 -6 -3 -8 3 -5 6 4 19 0 29 -8 22 -16 38 -20 29 -6 -3 5 5 11 17
13 39 6 70 -4 76 -24 4 -18 47 -36 59 -25 3 4 18 0 34 -8 20 -11 27 -20 22
-33 -6 -15 -5 -16 12 -2 10 8 16 10 12 4 -4 -7 4 -15 20 -19 16 -3 30 -10 33
-13 3 -4 21 -15 41 -25 20 -11 50 -31 66 -46 17 -15 35 -25 41 -23 5 1 14 -2
18 -9 5 -8 3 -10 -7 -5 -8 4 -6 1 4 -7 9 -8 17 -17 17 -21 0 -14 25 -33 37
-29 7 3 25 -8 41 -24 16 -15 48 -41 71 -56 23 -16 39 -33 36 -38 -4 -5 3 -9
15 -9 23 0 50 -21 50 -39 0 -6 11 -13 25 -17 14 -3 25 -10 25 -15 0 -5 -11 -4
-25 1 -20 7 -23 6 -18 -6 3 -8 11 -13 18 -10 7 2 21 -2 32 -10 17 -14 17 -15
-2 -13 -33 2 -37 0 -21 -16 15 -16 31 -21 22 -7 -8 13 30 9 43 -5 9 -10 8 -13
-8 -13 -11 0 -23 -5 -27 -12 -4 -6 -3 -8 3 -5 6 4 13 -2 16 -13 6 -23 24 -27
24 -5 0 8 -4 12 -9 9 -4 -3 -8 0 -8 5 0 18 38 12 49 -6 6 -10 11 -15 11 -11 0
4 25 -16 55 -44 38 -36 51 -54 42 -60 -8 -5 -4 -8 11 -8 12 0 22 -4 22 -8 0
-5 9 -20 20 -33 11 -13 23 -28 28 -34 11 -14 23 -45 16 -45 -3 0 -14 9 -26 20
-28 26 -36 25 -33 -2 3 -32 3 -32 20 -18 9 8 15 8 15 2 0 -6 9 -12 21 -14 28
-4 58 -53 42 -69 -9 -9 -11 -7 -9 7 2 10 1 13 -1 7 -3 -7 -10 -13 -16 -13 -8
0 -8 -3 1 -9 7 -4 14 -18 15 -29 1 -12 5 -22 10 -22 5 0 6 -7 3 -15 -3 -9 1
-18 9 -22 9 -3 15 -10 14 -17 -3 -25 1 -46 10 -46 5 0 8 14 7 30 0 17 -4 30
-8 30 -4 0 -5 11 -2 25 3 18 0 25 -11 25 -10 0 -13 5 -9 12 4 7 3 8 -4 4 -7
-4 -12 -1 -12 8 0 9 7 16 15 16 8 0 15 -6 15 -13 0 -7 9 -21 21 -30 16 -15 18
-21 9 -33 -10 -11 -9 -14 4 -14 11 0 16 -8 15 -27 -2 -24 -2 -25 -6 -5 -2 12
-8 22 -13 22 -6 0 -5 -12 1 -27 5 -14 7 -33 4 -42 -3 -8 -3 -12 1 -8 4 4 13
-2 21 -13 8 -11 23 -20 34 -20 25 0 24 -7 -3 -31 l-23 -20 23 11 c12 6 22 7
22 1 0 -5 -7 -12 -16 -15 -8 -3 -13 -10 -9 -15 10 -16 35 0 36 23 2 20 2 20 6
-1 2 -13 11 -23 18 -23 9 0 12 -6 8 -16 -3 -9 0 -20 8 -25 11 -7 11 -9 -3 -9
-20 0 -24 -26 -8 -50 8 -11 9 -8 4 13 -5 21 -3 27 10 27 9 0 16 -7 16 -15 0
-8 5 -15 10 -15 6 0 10 -13 10 -29 0 -17 5 -33 10 -36 6 -4 8 -10 5 -15 -3 -4
2 -10 10 -14 9 -3 12 -12 8 -22 -4 -12 -3 -15 5 -10 7 4 12 2 12 -3 0 -6 -4
-11 -9 -11 -5 0 -11 -11 -13 -25 -3 -13 -1 -22 3 -19 5 3 9 12 9 20 0 8 5 14
11 14 6 0 9 -7 5 -15 -3 -8 -1 -15 3 -15 5 0 8 -11 6 -25 -1 -14 2 -25 6 -25
5 0 9 -4 9 -10 0 -5 -6 -7 -14 -4 -10 4 -12 -2 -9 -20 5 -23 33 -46 33 -27 0
5 -6 11 -12 14 -7 2 -10 8 -6 12 10 11 28 -4 28 -25 0 -10 6 -20 13 -23 7 -2
8 -8 3 -13 -5 -5 -11 -4 -13 3 -5 14 -33 6 -33 -9 0 -6 7 -8 15 -4 16 6 48
-21 40 -35 -3 -4 2 -20 12 -35 17 -26 17 -27 -6 -19 -16 5 -21 4 -17 -4 4 -6
13 -11 20 -11 16 0 17 -62 2 -73 -7 -6 -5 -7 6 -4 14 5 18 -6 25 -71 10 -102
10 -107 -4 -104 -15 2 -17 -14 -3 -23 6 -4 8 -11 5 -16 -4 -5 -1 -9 6 -9 7 0
9 -10 7 -25 -3 -14 -2 -28 2 -30 5 -3 7 -13 5 -23 -2 -9 -7 -34 -10 -54 -4
-27 -11 -38 -23 -38 -10 0 -13 3 -7 8 6 4 11 15 13 26 3 15 1 16 -11 5 -19
-18 -17 -41 5 -47 10 -2 18 -11 18 -19 0 -12 -3 -13 -13 -4 -10 8 -14 7 -14
-4 0 -8 7 -15 16 -15 10 0 12 -3 5 -8 -18 -11 -13 -41 5 -34 14 5 14 4 2 -12
-8 -10 -15 -30 -16 -44 -1 -15 -4 -43 -8 -62 -4 -19 -9 -61 -11 -93 -3 -31
-11 -67 -17 -79 -7 -12 -12 -38 -13 -57 -1 -27 -6 -37 -20 -39 -18 -4 -19 -3
-3 13 18 18 23 30 8 21 -5 -4 -12 0 -15 6 -3 7 -4 4 -3 -7 1 -13 -3 -19 -13
-17 -12 3 -12 1 -3 -9 9 -9 10 -16 2 -26 -8 -9 -8 -13 0 -13 6 0 11 4 11 8 0
5 7 9 15 9 21 0 19 -14 -5 -27 -11 -6 -20 -16 -19 -23 0 -9 2 -9 6 1 2 6 11
12 19 12 11 0 11 -6 3 -27 -6 -16 -11 -30 -11 -33 -5 -28 -13 -40 -24 -40 -8
0 -14 -5 -14 -11 0 -6 7 -9 15 -5 17 6 21 -9 5 -19 -6 -4 -8 -10 -6 -14 3 -4
1 -13 -4 -21 -8 -13 -12 -12 -25 5 -9 11 -13 13 -9 5 4 -8 14 -23 22 -33 21
-24 1 -72 -27 -64 -14 3 -17 0 -14 -14 4 -14 0 -19 -18 -20 -17 -1 -19 -3 -6
-6 9 -2 14 -9 11 -15 -4 -7 2 -8 17 -3 21 7 22 6 10 -8 -7 -9 -18 -14 -25 -11
-6 3 -3 -1 8 -10 26 -21 14 -50 -18 -42 -20 5 -23 3 -19 -14 3 -11 10 -20 15
-20 5 0 7 4 4 8 -3 5 1 9 8 9 26 0 -11 -69 -39 -73 -8 -1 -15 3 -15 9 0 7 -4
6 -9 -3 -13 -19 -5 -29 19 -23 19 5 19 4 6 -28 -8 -18 -23 -36 -35 -41 -11 -4
-21 -10 -21 -12 0 -3 7 -3 15 0 12 5 13 1 4 -25 -8 -22 -17 -31 -32 -31 -22 1
-22 1 2 20 14 12 18 20 10 20 -8 0 -20 -9 -27 -20 -11 -18 -10 -21 7 -28 18
-6 18 -9 5 -41 -10 -24 -18 -31 -30 -27 -14 5 -15 4 -5 -8 10 -12 10 -20 0
-38 -8 -13 -14 -27 -14 -33 0 -5 -11 -10 -24 -9 -20 1 -21 -1 -9 -10 17 -13
13 -33 -13 -61 -10 -11 -19 -24 -21 -30 -2 -5 -6 -9 -9 -8 -4 1 -5 -7 -2 -17
5 -18 -5 -25 -30 -21 -5 1 -6 -3 -2 -9 3 -6 12 -7 18 -4 7 4 0 -6 -15 -23 -16
-16 -28 -33 -28 -37 0 -5 -11 -19 -26 -32 -14 -13 -23 -24 -20 -24 2 0 -18
-23 -45 -50 -27 -28 -54 -50 -60 -50 -6 0 -8 -4 -5 -9 8 -12 -47 -93 -84 -121
-17 -14 -38 -38 -46 -53 -9 -17 -21 -26 -29 -23 -8 3 -15 -4 -19 -17 -3 -12
-17 -33 -32 -47 -67 -64 -134 -135 -134 -143 0 -4 -4 -5 -10 -2 -5 3 -10 -1
-10 -9 0 -9 -4 -16 -9 -16 -5 0 -30 -20 -56 -45 -25 -25 -51 -43 -56 -40 -5 4
-7 0 -4 -7 3 -8 -21 -28 -63 -53 -37 -21 -69 -42 -72 -46 -3 -3 -20 -11 -39
-17 -18 -7 -56 -25 -82 -42 -27 -16 -55 -30 -63 -30 -7 0 -19 -7 -26 -15 -7
-8 -17 -15 -22 -15 -8 0 -20 -8 -53 -38 -7 -6 -18 -12 -24 -12 -5 0 -14 -6
-18 -13 -7 -11 -93 -57 -107 -57 -14 0 -203 -115 -213 -130 -9 -12 -20 -16
-34 -13 -21 6 -21 7 -4 20 11 7 14 13 8 13 -12 0 -31 -20 -32 -35 -3 -23 -81
-27 -81 -3 0 5 -4 6 -10 3 -5 -3 -10 -11 -10 -16 0 -6 5 -7 10 -4 6 3 10 0 10
-8 0 -9 -14 -17 -35 -21 -22 -5 -35 -13 -35 -23 0 -13 -3 -13 -15 -3 -13 11
-18 11 -28 0 -9 -10 -9 -11 1 -6 6 4 12 4 12 -1 -1 -16 -100 -54 -125 -47 -14
3 -31 1 -38 -4 -17 -14 -102 -28 -94 -16 3 5 -5 10 -18 10 -19 2 -21 -1 -12
-11 7 -7 15 -11 19 -9 4 2 9 0 12 -5 3 -5 -7 -11 -24 -13 -19 -3 -27 -1 -23 6
4 6 -5 -1 -20 -16 -16 -18 -36 -28 -55 -28 -15 0 -34 -6 -41 -13 -9 -7 -11 -7
-8 -1 8 14 -68 24 -86 11 -9 -6 -8 -7 3 -6 8 1 29 0 45 -1 27 -2 26 -3 -13
-12 -56 -12 -80 -5 -61 19 13 15 12 15 -9 2 -12 -8 -18 -15 -12 -17 5 -2 10
-8 10 -13 0 -6 -4 -8 -9 -4 -5 3 -13 0 -17 -6 -4 -8 -9 -7 -15 2 -6 9 -9 10
-9 2 0 -8 -11 -10 -34 -6 -19 3 -36 1 -40 -6 -4 -6 -16 -11 -26 -11 -10 0 -20
-6 -23 -12 -3 -10 -7 -10 -20 1 -9 7 -14 18 -10 25 4 6 -1 5 -11 -3 -13 -11
-14 -16 -4 -22 22 -14 -5 -9 -31 5 -14 8 -32 11 -40 8 -12 -5 -10 -8 9 -13 23
-7 -23 -12 -107 -13 -12 0 -20 -3 -17 -7 2 -4 -3 -9 -11 -13 -8 -3 -17 -1 -21
5 -3 6 -12 8 -20 5 -8 -3 -14 -2 -14 3 0 12 -33 9 -42 -4 -5 -6 -8 -5 -8 3 0
6 -4 12 -10 12 -5 0 -7 -6 -4 -13 3 -9 -5 -13 -26 -13 -16 0 -30 3 -30 8 0 4
5 8 12 8 6 0 8 3 5 6 -4 4 -13 2 -21 -5 -11 -9 -15 -9 -19 1 -4 9 -6 9 -6 -2
-1 -9 -11 -16 -22 -17 -28 -2 -27 -1 -34 -58 -6 -52 -29 -182 -45 -250 -5 -22
-11 -67 -14 -100 -2 -33 -9 -80 -14 -105 -6 -25 -16 -85 -22 -135 -31 -250
-36 -275 -58 -275 -13 0 -14 -2 -3 -9 11 -7 12 -28 7 -102 -9 -122 -34 -289
-47 -313 -8 -14 -8 -16 2 -10 9 5 10 2 5 -12 -5 -10 -10 -35 -13 -54 -3 -19
-11 -53 -18 -77 -7 -24 -11 -52 -8 -63 4 -13 -3 -27 -18 -41 l-24 -20 23 11
c22 11 23 10 20 -12 -2 -13 -8 -22 -13 -21 -6 1 -10 -15 -11 -35 -2 -73 -29
-172 -47 -172 -4 0 -17 -15 -28 -34 -15 -27 -28 -35 -61 -40 -34 -6 -47 -3
-76 18 -28 20 -39 23 -55 15 -25 -14 -83 -3 -105 19 -10 9 -37 19 -62 20 -50
4 -154 47 -146 61 3 4 -6 6 -19 3 -26 -5 -85 15 -85 28 0 5 -13 11 -30 15 -16
4 -30 11 -30 15 0 5 -19 14 -42 21 -24 6 -47 14 -53 17 -5 4 -12 7 -15 7 -34
5 -69 18 -65 25 3 4 -11 11 -30 14 -20 4 -33 11 -30 16 3 4 -8 11 -25 15 -16
4 -30 10 -30 14 0 4 -15 15 -32 24 -64 34 -102 68 -114 102 -6 19 -9 37 -6 39
10 11 7 51 -5 64 -20 20 -28 83 -12 92 7 5 17 6 23 3 5 -3 6 -1 2 6 -4 6 -11
9 -16 6 -18 -11 -15 70 3 109 10 21 13 35 7 31 -9 -5 -10 -1 -4 16 7 23 11 47
13 77 1 7 5 11 9 8 5 -3 9 1 9 9 0 8 -4 12 -9 9 -5 -3 -6 7 -3 23 11 49 14 55
27 47 10 -6 10 -5 1 7 -10 12 -9 28 2 74 8 33 14 75 15 93 0 19 5 32 13 32 9
0 9 2 0 8 -16 10 4 91 26 110 14 12 14 13 -1 8 -17 -5 -24 4 -13 16 6 5 11 72
19 210 2 32 9 64 16 73 10 12 10 15 0 15 -9 0 -10 9 -5 33 4 17 9 83 11 146 2
63 5 116 8 118 11 11 -9 43 -27 43 -39 0 -152 33 -160 46 -4 8 -19 14 -32 14
-32 0 -56 10 -49 21 3 5 -11 9 -30 9 -20 0 -36 5 -36 10 0 6 -3 9 -7 8 -15 -4
-53 13 -53 23 0 6 -4 8 -9 4 -5 -3 -12 -1 -16 5 -3 5 -15 10 -26 10 -10 0 -19
4 -19 8 0 5 -24 16 -53 25 -56 18 -117 61 -117 83 0 8 -5 14 -11 14 -5 0 -7
-4 -4 -10 3 -6 1 -10 -5 -10 -14 0 -45 30 -53 50 -4 11 -6 9 -6 -5 -1 -11 -5
-16 -9 -10 -4 6 -29 21 -56 34 -26 14 -50 31 -53 38 -3 7 -9 13 -15 13 -5 0
-20 12 -33 26 -13 14 -26 25 -29 25 -17 -1 -35 12 -29 22 3 6 1 7 -5 3 -6 -4
-28 2 -49 13 -21 10 -57 28 -80 38 -24 10 -43 21 -43 26 0 4 -8 7 -17 7 -17 1
-17 1 -1 14 10 7 15 16 11 19 -3 4 -11 3 -17 -2 -13 -10 -56 4 -56 19 0 5 -7
10 -16 10 -10 0 -14 6 -10 15 4 10 -1 15 -15 15 -11 0 -31 11 -45 25 -14 14
-29 25 -34 25 -5 0 -13 6 -17 13 -4 6 -21 19 -36 28 -16 9 -29 20 -29 25 1 5
-8 12 -19 16 -10 4 -19 12 -19 18 0 6 6 8 13 4 6 -4 8 -3 4 2 -4 4 -17 9 -27
9 -11 0 -19 4 -17 8 1 4 -17 17 -40 27 -27 12 -41 24 -38 32 3 8 -4 14 -19 14
-14 1 -30 7 -38 13 -43 37 -62 51 -68 51 -3 0 -17 10 -30 23 -14 12 -42 37
-65 56 -22 19 -39 38 -37 42 1 5 -3 9 -9 9 -12 0 -39 25 -39 35 0 4 -11 16
-25 27 -28 21 -32 34 -12 41 6 2 3 3 -9 1 -27 -5 -87 66 -78 93 5 15 4 15 -5
3 -9 -13 -13 -12 -27 9 -10 13 -27 33 -39 43 -14 12 -21 27 -18 39 3 10 0 19
-6 19 -6 0 -11 -5 -11 -11 0 -8 -5 -7 -15 1 -9 7 -13 15 -10 18 3 3 -4 12 -15
19 -21 15 -97 127 -127 187 -10 20 -25 38 -34 41 -9 3 -16 11 -16 18 0 7 -22
46 -49 87 -27 41 -56 89 -64 105 -8 17 -18 32 -21 35 -13 11 -59 90 -52 90 4
0 -3 7 -16 16 -15 11 -21 23 -18 36 3 11 0 21 -9 25 -8 3 -12 9 -9 13 3 4 -2
11 -11 14 -9 3 -14 12 -11 19 3 8 -4 19 -14 26 -11 6 -17 16 -14 20 2 5 -1 11
-9 14 -8 3 -17 19 -21 36 -3 16 -12 35 -20 41 -7 6 -11 20 -8 30 3 11 1 20 -4
20 -6 0 -21 21 -34 48 -13 26 -30 55 -38 65 -8 9 -10 17 -6 17 4 0 0 9 -10 20
-10 11 -14 20 -10 20 4 0 1 8 -7 18 -20 23 -30 52 -18 52 6 0 10 8 10 18 0 13
-2 14 -9 3 -10 -16 -18 -5 -31 38 -5 18 -4 33 2 39 7 7 6 10 -3 9 -8 -1 -14 3
-14 8 0 6 4 9 8 7 5 -1 6 2 2 8 -3 6 -10 8 -14 6 -11 -7 -41 59 -41 89 0 14
-4 25 -9 25 -4 0 -14 21 -21 46 -11 39 -11 47 1 55 11 7 9 9 -8 9 -17 0 -23 6
-23 23 0 13 -3 27 -7 31 -7 7 -11 18 -15 51 -2 11 -7 23 -12 27 -6 4 -4 14 5
24 11 14 11 16 0 10 -21 -13 -33 15 -13 32 16 13 16 13 0 8 -13 -4 -18 0 -18
14 0 11 -4 20 -8 20 -9 0 -37 95 -36 122 1 11 -5 15 -19 12 -15 -2 -18 -1 -9
8 8 8 5 24 -9 60 -10 27 -19 58 -19 68 0 11 -4 20 -9 20 -5 0 -8 14 -7 31 1
18 -3 33 -11 36 -7 3 -11 8 -9 12 3 4 1 25 -4 47 -5 21 -11 50 -13 64 -12 62
-31 127 -44 145 -11 17 -13 17 -13 2 0 -9 -4 -17 -9 -17 -10 0 -20 -53 -25
-126 -2 -21 -6 -46 -9 -54 -10 -27 -19 -94 -19 -140 1 -24 -2 -49 -6 -55 -8
-11 -13 -51 -17 -136 -3 -54 -10 -109 -20 -159 -12 -58 -15 -78 -20 -125 -10
-101 -18 -150 -25 -171 -5 -11 -11 -47 -14 -78 -8 -68 -20 -96 -44 -97 -14 0
-14 -2 -2 -7 17 -8 25 -32 11 -32 -5 0 -8 -16 -7 -36 3 -26 0 -34 -10 -30 -8
3 -14 1 -14 -4 0 -6 5 -10 10 -10 16 0 12 -32 -7 -52 -20 -22 -28 -72 -10 -62
9 5 8 3 0 -6 -9 -10 -10 -17 -2 -27 7 -7 7 -13 2 -13 -5 0 -9 -8 -9 -17 -1
-10 -3 -33 -7 -51 -3 -18 -1 -30 4 -26 5 3 9 -4 9 -15 0 -15 -4 -19 -17 -14
-12 5 -11 1 5 -15 21 -21 21 -41 -1 -69 -6 -9 -6 -13 2 -13 6 0 11 -5 11 -11
0 -6 -7 -8 -16 -5 -8 3 -12 2 -9 -4 9 -15 -28 -49 -66 -61 -55 -17 -140 -20
-194 -8 -78 17 -86 20 -80 30 4 5 2 9 -4 9 -5 0 -11 -6 -14 -12 -4 -10 -7 -10
-18 0 -7 6 -23 12 -35 12 -39 0 -85 21 -82 38 2 10 -5 17 -17 19 -19 3 -19 3
-1 -5 12 -5 15 -11 9 -15 -9 -6 -107 19 -163 40 -8 4 -18 5 -22 5 -5 -1 -8 2
-8 8 0 5 -16 12 -36 16 -22 4 -33 11 -30 19 3 8 -2 11 -14 8 -26 -7 -80 27
-81 52 -1 15 -2 16 -6 3 -4 -15 -8 -14 -38 5 -19 12 -34 28 -35 35 0 6 -11 12
-25 12 -15 0 -25 6 -25 15 0 8 -14 18 -32 23 -18 4 -33 14 -33 22 0 7 -8 16
-18 19 -10 4 -17 11 -15 16 2 6 -7 11 -19 13 -13 2 -23 10 -23 18 0 7 -11 16
-25 20 -13 3 -27 15 -30 25 -4 10 -13 19 -21 19 -14 0 -19 32 -14 88 1 12 -6
45 -15 73 -15 43 -15 53 -4 60 10 6 11 9 2 9 -7 0 -13 5 -13 11 0 6 7 9 15 5
8 -3 15 -1 15 4 0 6 -7 10 -15 10 -9 0 -15 9 -15 23 0 12 0 54 0 92 0 71 8
179 16 225 3 14 7 54 10 90 3 36 12 89 20 118 8 29 12 57 9 62 -4 6 0 34 8 63
8 28 15 59 15 67 3 58 6 80 14 80 5 0 7 4 4 8 -3 5 -1 60 5 123 15 173 15 179
4 179 -7 0 -7 3 0 8 6 4 11 21 11 37 6 122 8 154 15 185 7 34 12 76 24 223 4
38 10 80 16 94 5 13 9 38 9 54 0 21 5 29 18 30 9 0 12 3 6 5 -17 7 -10 57 31
214 10 37 34 153 50 240 10 52 23 106 28 120 5 14 11 32 12 40 13 75 18 100
26 130 5 19 9 50 9 68 0 23 5 32 18 33 15 1 15 2 0 6 -13 3 -15 10 -8 31 5 15
11 71 14 125 8 119 16 208 21 224 2 7 12 10 22 7 17 -5 17 -5 0 6 -12 8 -16
19 -12 41 11 62 58 234 65 239 4 3 7 14 7 25 -2 24 22 95 31 95 4 0 8 15 9 32
2 18 7 34 13 36 6 2 8 8 4 13 -3 5 4 21 15 35 12 15 21 32 21 39 0 6 17 30 38
52 37 40 83 66 175 98 26 9 52 25 57 36 6 10 20 19 32 19 12 0 29 6 37 14 19
17 90 38 103 30 5 -3 7 0 6 8 -2 7 2 12 9 11 6 -1 17 4 23 12 7 8 25 15 40 15
16 0 30 5 32 12 3 8 9 8 22 1 21 -12 56 -6 56 9 0 5 -4 6 -10 3 -5 -3 -10 -2
-10 3 0 14 25 21 52 15 16 -3 19 -2 9 5 -16 12 -7 17 44 27 22 4 45 10 50 15
6 5 28 11 49 15 31 6 38 5 32 -6 -5 -8 -2 -8 6 2 34 41 276 52 348 16 31 -15
82 -75 79 -93 0 -4 5 -10 11 -14 7 -4 13 -19 13 -34 0 -14 3 -23 8 -20 13 8
17 -98 6 -171 -3 -22 -9 -57 -12 -79 -3 -21 -8 -43 -11 -47 -10 -16 -22 -9
-17 10 3 10 -1 22 -8 26 -8 5 -10 4 -5 -3 4 -7 1 -12 -6 -12 -9 0 -9 -3 2 -10
8 -5 11 -10 5 -10 -5 0 -4 -5 3 -12 14 -14 16 -62 2 -88 -5 -10 -11 -31 -12
-47 -2 -24 -6 -29 -24 -25 -12 2 -25 -2 -29 -9 -5 -8 -4 -10 3 -5 7 4 12 3 12
-3 0 -5 -5 -13 -10 -16 -6 -4 -8 -10 -5 -15 3 -5 -2 -16 -11 -24 -8 -9 -11
-16 -4 -16 6 0 16 11 22 25 6 14 15 25 19 25 5 0 6 8 3 18 -5 13 -4 14 4 3 10
-14 5 -48 -9 -57 -5 -3 -9 -16 -9 -30 0 -22 -12 -29 -42 -25 -3 0 -5 -7 -3
-17 2 -9 4 -20 4 -24 1 -4 8 -5 16 -2 12 5 13 1 4 -25 -6 -17 -15 -33 -19 -36
-4 -3 -6 -14 -3 -25 4 -14 -1 -22 -18 -29 -18 -7 -19 -10 -6 -10 22 -1 22 -16
-2 -40 -13 -13 -16 -22 -9 -29 5 -5 8 -18 5 -28 -4 -16 -5 -15 -6 4 0 12 -5
22 -9 22 -9 0 -8 -38 3 -63 4 -10 3 -29 -3 -42 -8 -18 -8 -25 1 -29 7 -2 2 -5
-10 -5 -26 -1 -38 -17 -22 -27 8 -4 9 -3 5 4 -4 7 -1 12 8 12 19 0 11 -26 -11
-34 -14 -6 -14 -8 1 -25 17 -18 16 -20 -3 -26 -23 -7 -27 -25 -9 -43 8 -8 8
-15 -3 -28 -9 -11 -9 -15 -2 -10 10 5 11 1 4 -16 -5 -13 -15 -22 -22 -20 -10
2 -10 0 1 -12 10 -13 10 -16 -1 -16 -9 0 -10 -3 -4 -8 13 -9 18 -32 7 -32 -4
0 -9 -19 -11 -42 -1 -23 -4 -45 -6 -48 -4 -6 -11 -38 -19 -89 -2 -7 7 -24 19
-37 19 -21 27 -22 104 -18 55 3 89 0 98 -7 11 -9 12 -9 7 5 -8 20 23 33 39 17
9 -9 8 -11 -5 -6 -11 4 -18 2 -18 -5 0 -6 4 -9 9 -5 5 3 12 1 16 -5 3 -5 12
-10 18 -10 8 0 8 3 2 8 -5 4 -11 15 -13 25 -2 13 2 18 15 16 10 -2 33 5 52 15
28 15 33 16 28 3 -3 -9 2 -21 11 -29 15 -12 16 -11 4 4 -12 15 -9 19 18 33 33
17 52 13 32 -7 -19 -19 -14 -28 14 -28 24 0 25 2 13 17 -12 15 -12 16 3 10 10
-3 17 -3 17 1 -5 30 3 44 21 39 11 -3 20 -1 20 4 0 5 5 9 10 9 19 0 10 -21
-12 -30 -13 -5 -16 -9 -8 -9 18 0 52 24 44 32 -13 13 7 27 26 17 11 -6 21 -6
25 -1 3 5 -3 12 -12 14 -13 3 -12 5 5 6 13 0 35 10 49 21 14 11 32 20 40 20 8
0 11 5 8 10 -5 9 15 15 38 11 4 0 7 4 7 10 0 16 32 44 51 44 10 0 21 4 26 9 5
5 3 6 -4 2 -7 -4 -13 -2 -13 3 0 6 9 11 20 11 11 0 20 6 20 14 0 8 11 17 25
20 14 4 23 11 20 16 -3 6 1 10 10 10 8 0 18 7 21 15 4 8 12 15 20 15 8 0 14 4
14 8 0 5 19 24 43 42 23 19 36 27 28 17 -12 -15 -11 -17 3 -17 9 0 16 7 16 16
0 20 39 56 51 48 5 -3 6 2 3 10 -4 10 -1 16 7 16 8 0 25 12 38 25 12 14 28 22
34 18 5 -3 7 -1 3 5 -3 6 7 19 24 28 16 10 30 22 30 25 0 4 10 11 21 14 16 5
18 9 9 15 -9 6 -7 10 9 15 11 3 21 11 21 16 0 5 7 9 17 9 9 0 13 3 10 6 -7 7
102 113 116 114 4 0 7 7 7 15 0 8 5 15 12 15 6 0 9 3 6 6 -9 9 64 84 75 77 5
-3 8 0 5 7 -6 18 27 50 50 50 14 0 15 2 2 10 -12 8 -12 11 3 28 9 10 17 24 17
30 0 7 7 12 15 12 8 0 15 5 15 12 0 6 12 35 27 65 22 44 31 52 48 47 11 -3 15
-2 9 3 -8 6 -8 19 0 48 9 32 16 40 34 39 12 -1 22 3 22 8 0 6 -7 8 -15 4 -21
-7 -19 -2 15 71 21 44 35 63 45 60 7 -3 19 2 27 11 12 15 11 16 -4 3 -28 -21
-32 7 -9 70 10 30 22 67 25 82 4 18 11 25 19 20 9 -5 9 -4 0 8 -9 11 -9 26 -1
59 6 25 14 47 18 50 8 6 10 28 10 78 -1 25 3 32 12 26 10 -6 10 -4 3 7 -6 8
-10 56 -10 106 0 51 -3 93 -6 93 -3 0 -6 6 -7 13 -1 6 -5 35 -10 64 -5 29 -5
50 0 47 4 -3 8 0 8 5 0 6 -7 11 -15 11 -17 0 -37 62 -23 71 6 3 3 9 -6 12 -9
4 -16 16 -16 27 0 11 -4 20 -10 20 -5 0 -10 7 -10 16 0 9 -10 30 -22 47 -13
18 -22 33 -20 35 7 7 0 22 -10 20 -7 -2 -12 3 -10 10 1 6 -4 12 -12 12 -8 0
-18 9 -21 20 -3 11 -13 20 -22 20 -11 0 -14 6 -10 21 4 15 2 19 -9 15 -8 -3
-14 -1 -14 5 0 6 -4 8 -9 4 -5 -3 -12 4 -16 15 -3 11 -11 20 -16 20 -5 0 -9 7
-9 15 0 8 -4 15 -10 15 -5 0 -7 -8 -3 -17 3 -10 -5 -5 -18 12 -13 16 -23 33
-21 37 1 5 -5 8 -13 8 -8 0 -15 6 -16 13 0 9 -2 9 -6 0 -3 -10 -8 -10 -19 1
-8 8 -14 19 -14 25 0 6 -3 10 -7 9 -15 -4 -73 21 -73 31 0 6 -7 8 -15 5 -8 -4
-17 1 -21 10 -3 9 -9 14 -13 11 -4 -2 -19 7 -34 21 -14 13 -37 24 -51 24 -14
0 -28 5 -31 10 -4 6 -11 7 -17 4 -7 -5 -9 0 -6 14 4 15 2 19 -8 15 -8 -3 -11
-10 -7 -16 4 -7 0 -8 -13 -2 -10 4 -41 10 -69 12 -35 4 -55 12 -68 27 -13 16
-16 17 -11 3 4 -12 2 -16 -8 -12 -7 3 -29 7 -48 9 -19 3 -51 9 -70 14 -21 5
-46 5 -60 0 -14 -5 -35 -5 -51 1 -15 5 -30 6 -34 3 -4 -4 -5 4 -1 18 3 14 3
19 0 12 -3 -6 -11 -9 -16 -6 -7 4 -8 2 -4 -4 5 -8 -1 -12 -14 -12 -16 0 -20 5
-16 15 3 8 1 15 -4 15 -6 0 -10 -7 -10 -15 0 -12 -8 -14 -37 -9 -21 3 -41 11
-45 18 -8 11 -12 1 -9 -18 1 -5 -6 -3 -15 5 -10 8 -15 9 -12 4 4 -7 -28 -12
-93 -13 -86 -3 -98 -1 -93 12 3 9 1 16 -5 16 -6 0 -11 -8 -11 -18 0 -15 -14
-20 -82 -31 -108 -15 -108 -15 -142 -30 -16 -6 -34 -10 -40 -8 -6 2 -22 -3
-36 -13 -14 -9 -36 -17 -50 -18 -14 -1 -45 -8 -69 -17 -24 -8 -61 -15 -82 -15
-22 0 -39 -3 -39 -8 0 -10 -48 -30 -87 -35 -24 -4 -33 -1 -33 9 0 9 -11 14
-31 14 -16 0 -28 -4 -25 -9 3 -5 16 -7 29 -5 12 2 16 1 8 -2 -11 -5 -11 -8 0
-16 11 -8 10 -9 -3 -4 -10 3 -20 0 -24 -6 -4 -7 -9 -6 -15 3 -6 10 -9 11 -9 2
0 -7 -11 -13 -25 -13 -14 0 -25 4 -25 10 0 5 -7 6 -17 3 -12 -5 -14 -3 -8 8 5
8 -1 5 -14 -5 -12 -11 -19 -26 -17 -33 3 -8 -2 -13 -14 -13 -10 0 -21 -4 -24
-9 -6 -9 -56 -22 -56 -14 0 2 10 8 23 13 l22 9 -23 0 c-15 1 -26 -7 -32 -21
-5 -13 -9 -17 -9 -10 -1 23 -21 2 -21 -23 0 -16 -11 -29 -35 -44 -28 -16 -35
-17 -35 -6 0 19 -10 19 -36 0 -12 -8 -24 -11 -28 -7 -4 3 -4 -1 -1 -10 6 -15
9 -14 28 5 14 14 22 17 25 9 5 -16 -16 -42 -34 -42 -8 0 -14 -6 -15 -12 0 -10
-2 -10 -6 0 -7 18 -23 15 -23 -5 0 -14 -2 -14 -20 2 -18 16 -20 17 -14 2 6
-15 -22 -34 -62 -41 -5 -1 -23 -11 -38 -23 -18 -15 -48 -24 -94 -28 -37 -4
-73 -13 -81 -19 -11 -8 -13 -8 -7 2 9 15 -6 16 -21 1 -8 -8 -17 -7 -32 3 -12
8 -18 18 -14 21 3 4 12 2 19 -4 14 -12 34 -4 34 13 0 6 -9 8 -20 5 -12 -3 -24
1 -31 11 -10 16 -10 16 -5 0 7 -23 -22 -31 -49 -14 -22 15 -41 56 -25 56 5 0
15 -12 22 -27 13 -28 45 -47 35 -22 -2 8 -10 13 -16 11 -6 -1 -11 7 -11 17 0
23 -25 34 -48 22 -13 -7 -20 -4 -28 14 -10 20 -9 25 5 28 9 2 4 3 -12 2 -22
-1 -29 3 -33 24 -9 40 -12 48 -13 28 -1 -15 -3 -16 -15 -5 -8 7 -12 16 -9 21
2 4 -2 7 -9 7 -8 1 -5 7 7 17 17 14 18 15 2 9 -22 -7 -44 12 -53 48 -3 14 -9
26 -13 26 -4 0 -13 12 -20 26 -11 25 -10 26 9 21 18 -5 19 -3 9 9 -7 8 -18 13
-24 10 -14 -5 -57 82 -44 89 4 3 12 -3 18 -12 8 -14 10 -15 11 -3 0 8 -9 21
-21 28 -17 11 -20 11 -14 0 5 -9 5 -10 -2 -3 -6 6 -16 27 -23 48 -6 20 -16 37
-21 37 -6 0 -6 8 1 19 13 26 13 31 -2 26 -7 -3 -18 6 -25 20 -6 14 -7 25 -2
25 5 0 12 -7 15 -15 4 -8 10 -15 14 -15 11 0 -18 58 -33 67 -7 4 -6 0 2 -10 8
-10 9 -17 3 -17 -9 0 -17 20 -47 118 -3 6 0 12 5 12 6 0 10 -8 11 -17 0 -10 5
-5 10 11 4 17 6 32 4 35 -3 2 -5 -1 -5 -7 0 -13 -30 -17 -31 -4 -3 32 -10 81
-14 101 -4 15 -1 27 7 32 10 7 9 9 -5 9 -15 0 -17 8 -14 65 2 35 0 62 -4 59
-17 -10 -9 36 9 54 10 10 16 24 14 32 -3 9 3 11 21 8 19 -4 27 0 30 13 3 10 2
18 -2 17 -23 -3 -21 5 7 25 17 13 28 28 24 32 -4 5 1 6 10 2 10 -3 19 0 22 10
6 14 8 14 21 -3 14 -18 14 -18 15 4 0 13 4 21 9 18 5 -3 8 2 7 12 -1 12 6 17
22 16 12 0 22 3 22 7 0 4 16 7 35 7 43 0 70 19 55 37 -8 10 -2 14 25 19 19 4
35 11 35 15 0 8 56 36 72 36 4 0 13 6 20 13 6 6 19 12 28 12 9 0 25 7 36 15
10 8 26 15 35 15 9 0 22 7 29 15 7 8 15 13 19 11 3 -2 31 6 61 19 40 17 57 20
62 12 6 -9 8 -9 8 0 0 7 9 17 20 23 15 8 20 8 18 -1 -2 -6 2 -13 9 -16 7 -3 9
3 6 16 -4 18 -1 21 23 21 16 0 38 7 48 15 11 8 29 15 41 15 11 0 37 9 58 20
33 18 78 27 147 30 13 0 13 1 0 10 -11 7 -7 10 17 10 17 0 35 -4 38 -10 3 -5
14 -9 23 -9 15 1 15 2 0 6 -10 2 -18 9 -18 14 0 6 5 7 11 3 6 -3 16 0 21 7 7
11 11 11 15 2 2 -7 12 -13 21 -13 14 0 15 2 2 10 -20 13 -12 17 40 21 32 3 44
0 42 -8 -2 -15 14 -17 23 -3 3 6 1 10 -6 10 -8 0 -8 4 1 15 13 15 35 11 25 -6
-4 -5 1 -9 11 -9 13 0 14 3 5 13 -14 17 -4 27 25 27 13 0 47 9 75 20 28 12 54
18 57 15 3 -3 -1 -5 -8 -5 -20 0 0 -16 30 -25 16 -4 20 -3 12 3 -21 15 -3 40
33 44 28 3 35 0 38 -17 3 -15 5 -13 6 8 1 23 5 27 31 27 17 0 30 -5 30 -11 0
-8 4 -8 13 -1 6 6 35 12 62 15 28 2 58 7 68 12 23 10 50 -1 41 -17 -6 -10 -3
-9 9 0 9 8 22 10 28 6 8 -5 9 -3 5 5 -5 7 -15 10 -25 6 -11 -4 -13 -3 -5 5 18
18 85 25 95 9 6 -10 9 -10 9 -1 0 6 12 12 26 12 14 0 22 -4 19 -10 -3 -6 1 -7
9 -4 9 3 13 10 11 15 -3 4 8 7 25 6 23 -2 28 -6 24 -19z m-1824 -512 c0 -2
-11 -6 -25 -8 -14 -3 -25 -1 -25 3 0 5 11 9 25 9 14 0 25 -2 25 -4z m3680 -48
c0 -19 -2 -20 -10 -8 -13 19 -13 30 0 30 6 0 10 -10 10 -22z m490 -500 c0 -12
-8 -18 -21 -18 -11 0 -17 5 -14 10 4 6 11 8 16 5 5 -4 9 1 9 9 0 9 -7 16 -15
16 -8 0 -15 -5 -15 -12 0 -6 -3 -9 -6 -6 -3 3 0 15 7 26 12 19 14 19 26 4 7
-9 13 -25 13 -34z m-3260 -509 c0 -11 -27 -12 -34 0 -3 4 -3 11 0 14 8 8 34
-3 34 -14z m3595 -828 c3 -5 2 -12 -3 -15 -5 -3 -9 1 -9 9 0 17 3 19 12 6z
m-3025 -945 c0 -3 -4 -8 -10 -11 -5 -3 -10 -1 -10 4 0 6 5 11 10 11 6 0 10 -2
10 -4z m2770 -198 c0 -6 -7 -7 -16 -4 -14 5 -15 4 -5 -8 8 -9 8 -16 2 -20 -14
-9 -23 11 -16 34 6 19 35 18 35 -2z m-2884 -295 c-10 -10 -19 5 -10 18 6 11 8
11 12 0 2 -7 1 -15 -2 -18z m4001 -259 c-3 -3 -12 -4 -19 -1 -8 3 -5 6 6 6 11
1 17 -2 13 -5z m2323 -24 c13 -8 13 -10 -2 -10 -9 0 -20 5 -23 10 -8 13 5 13
25 0z m-5920 -24 c0 -3 -4 -8 -10 -11 -5 -3 -10 -1 -10 4 0 6 5 11 10 11 6 0
10 -2 10 -4z m3380 -70 c0 -2 -7 -7 -16 -10 -8 -3 -12 -2 -9 4 6 10 25 14 25
6z m-291 -103 c0 -11 -3 -13 -6 -6 -3 9 -10 10 -23 3 -11 -6 -25 -9 -32 -8 -7
2 -12 -3 -10 -9 3 -19 -25 -16 -32 3 -4 12 -2 15 9 11 8 -4 17 -2 20 4 4 5 9
8 13 5 4 -2 16 0 27 5 30 12 35 11 34 -8z m3201 -35 c0 -6 -6 -5 -15 2 -8 7
-15 14 -15 16 0 2 7 1 15 -2 8 -4 15 -11 15 -16z m-3575 -128 c3 -5 1 -10 -4
-10 -6 0 -11 5 -11 10 0 6 2 10 4 10 3 0 8 -4 11 -10z m-99 -335 c-3 -8 0 -16
7 -19 7 -2 4 -5 -5 -5 -13 -1 -18 7 -18 25 0 15 4 23 11 19 6 -4 8 -13 5 -20z
m34 -152 c0 -22 -2 -25 -10 -13 -13 20 -13 40 0 40 6 0 10 -12 10 -27z m4328
-166 c-1 -2 3 -11 10 -19 16 -20 24 -58 11 -58 -5 0 -9 5 -9 11 0 5 -4 8 -9 4
-6 -3 -10 12 -9 35 0 23 2 39 5 36 3 -2 3 -6 1 -9z m-3765 -632 c-3 -9 -8 -14
-10 -11 -3 3 -2 9 2 15 9 16 15 13 8 -4z m-2323 -249 c0 -3 -4 -8 -10 -11 -5
-3 -10 -1 -10 4 0 6 5 11 10 11 6 0 10 -2 10 -4z m3138 -447 c-2 -6 -8 -10
-13 -10 -5 0 -11 4 -13 10 -2 6 4 11 13 11 9 0 15 -5 13 -11z m-58 -29 c0 -5
-4 -10 -10 -10 -5 0 -10 5 -10 10 0 6 5 10 10 10 6 0 10 -4 10 -10z m-240 -34
c-14 -8 -29 -12 -33 -9 -12 8 14 23 38 22 18 0 17 -1 -5 -13z m-300 -76 c0 -5
-4 -10 -10 -10 -5 0 -10 5 -10 10 0 6 5 10 10 10 6 0 10 -4 10 -10z m-80 -30
c0 -5 -7 -10 -16 -10 -8 0 -12 5 -9 10 3 6 10 10 16 10 5 0 9 -4 9 -10z m3784
-475 c-4 -8 -10 -15 -15 -15 -4 0 -6 7 -3 15 4 8 10 15 15 15 4 0 6 -7 3 -15z
m-5051 -545 c7 0 3 -7 -7 -15 -21 -16 -36 -11 -36 12 0 10 6 13 16 9 9 -3 21
-6 27 -6z m4661 -295 c-4 -8 -8 -15 -10 -15 -2 0 -4 7 -4 15 0 8 4 15 10 15 5
0 7 -7 4 -15z m-19 -25 c3 -5 -1 -10 -10 -10 -9 0 -13 5 -10 10 3 6 8 10 10
10 2 0 7 -4 10 -10z m-2242 -1307 c-13 -2 -23 -9 -23 -14 0 -5 -8 -9 -17 -9
-15 0 -14 2 3 15 10 8 28 14 39 13 17 -1 17 -1 -2 -5z"/>
<path d="M7686 14867 c-16 -12 -16 -13 3 -13 12 0 21 6 21 13 0 7 -1 13 -3 13
-2 0 -11 -6 -21 -13z"/>
<path d="M7460 14855 c-11 -13 -10 -14 4 -9 9 3 16 10 16 15 0 13 -6 11 -20
-6z"/>
<path d="M7572 14856 c7 -8 15 -12 17 -11 5 6 -10 25 -20 25 -5 0 -4 -6 3 -14z"/>
<path d="M7160 14828 c0 -6 3 -8 7 -5 3 4 12 2 20 -5 11 -8 12 -7 7 6 -7 18
-34 22 -34 4z"/>
<path d="M7230 14831 c0 -6 5 -13 10 -16 6 -3 10 1 10 9 0 9 -4 16 -10 16 -5
0 -10 -4 -10 -9z"/>
<path d="M7286 14832 c-13 -12 -4 -19 19 -14 14 2 23 7 20 10 -8 8 -33 11 -39
4z"/>
<path d="M8130 14834 c0 -3 7 -12 15 -20 16 -17 18 -14 9 10 -6 15 -24 23 -24
10z"/>
<path d="M8177 14823 c-10 -9 -9 -23 1 -23 5 0 9 7 9 15 0 17 -1 18 -10 8z"/>
<path d="M6962 14781 c2 -7 7 -12 11 -12 12 1 9 15 -3 20 -7 2 -11 -2 -8 -8z"/>
<path d="M6925 14769 c-4 -6 -5 -12 -2 -15 2 -3 7 2 10 11 7 17 1 20 -8 4z"/>
<path d="M6891 14754 c0 -11 3 -14 6 -6 3 7 2 16 -1 19 -3 4 -6 -2 -5 -13z"/>
<path d="M6786 14715 c4 -8 8 -15 10 -15 2 0 4 7 4 15 0 8 -4 15 -10 15 -5 0
-7 -7 -4 -15z"/>
<path d="M6625 14690 c3 -5 8 -10 11 -10 2 0 4 5 4 10 0 6 -5 10 -11 10 -5 0
-7 -4 -4 -10z"/>
<path d="M6500 14650 c0 -5 5 -10 10 -10 6 0 10 5 10 10 0 6 -4 10 -10 10 -5
0 -10 -4 -10 -10z"/>
<path d="M6185 14550 c-3 -5 -1 -10 4 -10 6 0 11 5 11 10 0 6 -2 10 -4 10 -3
0 -8 -4 -11 -10z"/>
<path d="M6110 14515 c-8 -9 -9 -15 -2 -15 6 0 14 5 17 10 4 6 11 7 17 4 7 -4
8 -2 4 4 -10 16 -21 15 -36 -3z"/>
<path d="M5922 14435 c-10 -8 -23 -11 -27 -7 -5 4 -4 1 0 -7 6 -11 4 -13 -9
-8 -10 4 -15 3 -11 -3 9 -15 32 -12 39 6 3 8 10 12 16 9 5 -3 17 -2 26 3 14 8
14 10 1 15 -8 3 -24 -1 -35 -8z"/>
<path d="M5830 14385 c-14 -16 -10 -18 14 -9 9 3 16 10 16 15 0 14 -16 11 -30
-6z"/>
<path d="M5581 14231 c-7 -5 -9 -11 -5 -14 5 -3 15 1 22 9 14 16 5 18 -17 5z"/>
<path d="M9590 14215 c0 -11 -5 -15 -16 -11 -8 3 -12 2 -9 -4 3 -6 14 -10 23
-10 14 0 14 -2 3 -9 -15 -10 -7 -31 12 -31 8 0 8 3 -1 9 -11 7 -11 9 2 14 9 4
15 3 15 -1 -1 -4 -1 -16 0 -27 1 -16 3 -17 10 -6 5 8 7 21 3 29 -4 11 -1 13 9
7 8 -5 11 -5 6 1 -8 9 -12 10 -38 13 -6 0 -9 8 -6 16 4 8 2 17 -3 20 -6 4 -10
-1 -10 -10z"/>
<path d="M5493 14135 c0 -8 4 -15 9 -15 4 0 8 4 8 9 0 6 -4 12 -8 15 -5 3 -9
-1 -9 -9z"/>
<path d="M5495 14040 c3 -5 8 -10 11 -10 2 0 4 5 4 10 0 6 -5 10 -11 10 -5 0
-7 -4 -4 -10z"/>
<path d="M9706 14042 c-3 -5 1 -9 9 -9 8 0 12 4 9 9 -3 4 -7 8 -9 8 -2 0 -6
-4 -9 -8z"/>
<path d="M5494 14008 c-11 -17 6 -22 22 -7 13 14 13 16 -1 16 -9 0 -18 -4 -21
-9z"/>
<path d="M5511 13894 c0 -11 3 -14 6 -6 3 7 2 16 -1 19 -3 4 -6 -2 -5 -13z"/>
<path d="M9886 13892 c-2 -4 -1 -14 3 -21 6 -10 10 -9 14 3 6 16 -8 32 -17 18z"/>
<path d="M5551 13764 c0 -11 3 -14 6 -6 3 7 2 16 -1 19 -3 4 -6 -2 -5 -13z"/>
<path d="M5550 13731 c0 -4 10 -12 23 -20 19 -13 21 -12 10 1 -7 8 -11 17 -8
20 3 2 -2 5 -10 5 -8 0 -15 -3 -15 -6z"/>
<path d="M9985 13720 c3 -5 8 -10 11 -10 2 0 4 5 4 10 0 6 -5 10 -11 10 -5 0
-7 -4 -4 -10z"/>
<path d="M9993 13687 c0 -7 12 -13 26 -14 15 0 18 1 9 4 -10 2 -18 9 -18 14 0
5 -4 9 -8 9 -5 0 -9 -6 -9 -13z"/>
<path d="M10000 13652 c0 -5 7 -15 15 -22 8 -7 15 -9 15 -6 0 4 -7 14 -15 22
-8 9 -15 11 -15 6z"/>
<path d="M10061 13610 c0 -14 4 -34 9 -45 8 -18 9 -18 9 5 0 14 -4 34 -9 45
-8 18 -9 18 -9 -5z"/>
<path d="M5600 13589 c0 -5 5 -7 10 -4 6 3 10 8 10 11 0 2 -4 4 -10 4 -5 0
-10 -5 -10 -11z"/>
<path d="M5620 13566 c0 -2 7 -7 16 -10 8 -3 12 -2 9 4 -6 10 -25 14 -25 6z"/>
<path d="M7625 13539 c-11 -16 -1 -19 13 -3 7 8 8 14 3 14 -5 0 -13 -5 -16
-11z"/>
<path d="M7750 13540 c-12 -7 -10 -9 7 -7 12 0 19 5 17 9 -6 10 -6 10 -24 -2z"/>
<path d="M10078 13520 c12 -5 22 -12 22 -16 0 -3 -6 -4 -13 -1 -7 3 -13 -2
-13 -12 0 -12 8 -16 26 -15 14 1 26 2 27 3 9 4 -44 51 -56 50 -10 0 -8 -4 7
-9z"/>
<path d="M7925 13510 c3 -5 11 -10 16 -10 6 0 7 5 4 10 -3 6 -11 10 -16 10 -6
0 -7 -4 -4 -10z"/>
<path d="M8215 13480 c-3 -5 -1 -10 4 -10 6 0 11 5 11 10 0 6 -2 10 -4 10 -3
0 -8 -4 -11 -10z"/>
<path d="M7030 13426 c0 -2 7 -7 16 -10 8 -3 12 -2 9 4 -6 10 -25 14 -25 6z"/>
<path d="M6910 13409 c0 -5 5 -7 10 -4 6 3 10 8 10 11 0 2 -4 4 -10 4 -5 0
-10 -5 -10 -11z"/>
<path d="M10137 13414 c-10 -11 3 -24 23 -24 13 0 17 5 14 15 -6 15 -26 20
-37 9z"/>
<path d="M8445 13400 c-3 -6 1 -7 9 -4 18 7 21 14 7 14 -6 0 -13 -4 -16 -10z"/>
<path d="M6818 13383 c7 -3 16 -2 19 1 4 3 -2 6 -13 5 -11 0 -14 -3 -6 -6z"/>
<path d="M6891 13373 c0 -11 3 -13 6 -5 2 6 8 10 12 8 4 -3 13 -1 21 5 11 6 8
9 -12 9 -20 0 -28 -5 -27 -17z"/>
<path d="M10154 13369 c-8 -14 14 -19 25 -6 8 10 7 14 -5 14 -8 0 -17 -4 -20
-8z"/>
<path d="M8525 13350 c3 -5 8 -10 11 -10 2 0 4 5 4 10 0 6 -5 10 -11 10 -5 0
-7 -4 -4 -10z"/>
<path d="M5723 13339 c9 -6 15 -14 12 -20 -4 -5 -1 -9 4 -9 6 0 11 4 11 8 0
12 -22 32 -34 32 -6 0 -3 -5 7 -11z"/>
<path d="M6616 13331 c-3 -5 2 -15 12 -22 15 -12 16 -12 5 2 -7 9 -10 19 -6
22 3 4 4 7 0 7 -3 0 -8 -4 -11 -9z"/>
<path d="M10170 13326 c8 -10 15 -27 17 -38 5 -35 17 -48 33 -38 13 8 13 10
-1 10 -12 0 -16 9 -15 32 0 18 -3 33 -9 33 -5 0 -17 4 -25 10 -13 8 -13 7 0
-9z"/>
<path d="M6080 13060 c0 -5 -5 -9 -11 -7 -6 1 -14 -5 -16 -13 -3 -10 -2 -11 4
-4 4 6 15 10 24 9 9 -2 16 4 16 11 0 8 -4 14 -9 14 -4 0 -8 -4 -8 -10z"/>
<path d="M6127 13063 c-10 -9 -9 -23 1 -23 5 0 9 7 9 15 0 17 -1 18 -10 8z"/>
<path d="M10250 12970 c-9 -6 -11 -10 -3 -10 7 0 10 -6 7 -14 -3 -8 0 -17 6
-21 7 -4 10 4 8 24 -1 17 -2 31 -3 31 0 0 -7 -5 -15 -10z"/>
<path d="M10273 12785 c0 -8 4 -15 9 -15 4 0 8 4 8 9 0 6 -4 12 -8 15 -5 3 -9
-1 -9 -9z"/>
<path d="M10280 12556 c0 -10 -4 -14 -12 -10 -6 4 -8 3 -5 -3 11 -17 50 -10
53 10 1 9 -2 17 -8 17 -6 0 -7 -8 -4 -17 5 -15 4 -15 -9 1 -14 18 -15 18 -15
2z"/>
<path d="M6971 12294 c0 -11 3 -14 6 -6 3 7 2 16 -1 19 -3 4 -6 -2 -5 -13z"/>
<path d="M10285 12290 c-3 -5 -1 -10 4 -10 6 0 11 5 11 10 0 6 -2 10 -4 10 -3
0 -8 -4 -11 -10z"/>
<path d="M7230 12280 c18 -12 40 -13 40 -2 0 4 -12 9 -27 10 -22 1 -24 0 -13
-8z"/>
<path d="M6836 12272 c-3 -6 1 -13 10 -16 23 -9 28 -2 10 13 -8 7 -17 8 -20 3z"/>
<path d="M7280 12255 c0 -10 30 -65 36 -65 9 0 -8 43 -22 58 -8 7 -14 11 -14
7z"/>
<path d="M7346 12117 c3 -10 9 -15 12 -12 3 3 0 11 -7 18 -10 9 -11 8 -5 -6z"/>
<path d="M8935 12110 c3 -5 11 -10 16 -10 6 0 7 5 4 10 -3 6 -11 10 -16 10 -6
0 -7 -4 -4 -10z"/>
<path d="M7350 12075 c0 -8 4 -15 10 -15 5 0 7 7 4 15 -4 8 -8 15 -10 15 -2 0
-4 -7 -4 -15z"/>
<path d="M7343 12030 c-1 -11 3 -23 9 -26 7 -5 9 -1 5 9 -3 10 -2 17 3 17 6 0
10 5 10 10 0 19 -26 10 -27 -10z"/>
<path d="M8897 12027 c-3 -8 -1 -20 4 -28 6 -10 9 -7 9 14 0 29 -5 35 -13 14z"/>
<path d="M7329 11970 c-5 -35 -2 -44 11 -47 13 -4 13 -3 0 6 -13 9 -12 11 5
12 l20 0 -20 9 c-18 8 -18 9 -2 9 18 1 14 21 -4 21 -5 0 -10 -4 -10 -10z"/>
<path d="M8865 11960 c-3 -5 1 -10 9 -10 9 0 16 5 16 10 0 6 -4 10 -9 10 -6 0
-13 -4 -16 -10z"/>
<path d="M10187 11948 c6 -7 13 -21 17 -32 5 -14 3 -17 -11 -12 -15 5 -15 4 1
-9 29 -22 37 -18 25 13 -6 15 -10 28 -10 30 4 13 -2 22 -15 22 -12 0 -14 -4
-7 -12z"/>
<path d="M10196 11856 c3 -9 11 -16 16 -16 13 0 5 23 -10 28 -7 2 -10 -2 -6
-12z"/>
<path d="M10175 11841 c-3 -6 1 -14 9 -17 12 -5 13 -10 5 -25 -5 -11 -14 -17
-20 -14 -11 7 -12 -5 -1 -21 4 -7 13 0 23 20 14 27 14 35 4 50 -8 11 -15 13
-20 7z"/>
<path d="M8780 11800 c0 -6 7 -10 15 -10 8 0 15 2 15 4 0 2 -7 6 -15 10 -8 3
-15 1 -15 -4z"/>
<path d="M7292 11776 c-10 -22 -7 -36 7 -36 3 0 6 14 7 30 1 36 0 37 -14 6z"/>
<path d="M8770 11765 c-7 -9 -8 -15 -2 -15 5 0 12 7 16 15 3 8 4 15 2 15 -2 0
-9 -7 -16 -15z"/>
<path d="M10135 11670 c-3 -5 -1 -10 4 -10 6 0 11 5 11 10 0 6 -2 10 -4 10 -3
0 -8 -4 -11 -10z"/>
<path d="M8702 11654 c-7 -8 -8 -14 -3 -14 10 0 25 19 20 25 -2 1 -10 -3 -17
-11z"/>
<path d="M5950 11596 c0 -8 4 -17 9 -20 5 -4 7 3 4 14 -6 23 -13 26 -13 6z"/>
<path d="M7235 11570 c-3 -5 -1 -10 4 -10 6 0 11 5 11 10 0 6 -2 10 -4 10 -3
0 -8 -4 -11 -10z"/>
<path d="M10094 11536 c-9 -20 -9 -23 2 -19 8 3 14 14 14 24 0 25 -3 24 -16
-5z"/>
<path d="M8601 11541 c-8 -6 -9 -11 -3 -15 6 -3 14 -1 17 5 9 14 2 20 -14 10z"/>
<path d="M10053 11495 c0 -8 6 -16 14 -19 11 -4 11 -1 3 14 -13 24 -17 25 -17
5z"/>
<path d="M7210 11490 c0 -5 5 -10 11 -10 5 0 7 5 4 10 -3 6 -8 10 -11 10 -2 0
-4 -4 -4 -10z"/>
<path d="M10036 11461 c-3 -5 1 -11 9 -14 9 -4 12 -1 8 9 -6 16 -10 17 -17 5z"/>
<path d="M7205 11449 c-4 -6 -5 -12 -2 -15 2 -3 7 2 10 11 7 17 1 20 -8 4z"/>
<path d="M10033 11416 c-6 -8 -9 -17 -6 -20 12 -11 19 -6 20 14 2 23 2 23 -14
6z"/>
<path d="M7195 11410 c-3 -5 1 -10 9 -10 9 0 16 5 16 10 0 6 -4 10 -9 10 -6 0
-13 -4 -16 -10z"/>
<path d="M7185 11360 c4 -6 11 -8 16 -5 14 9 11 15 -7 15 -8 0 -12 -5 -9 -10z"/>
<path d="M5882 11230 c0 -14 2 -19 5 -12 2 6 2 18 0 25 -3 6 -5 1 -5 -13z"/>
<path d="M7166 11242 c-2 -4 -1 -14 5 -22 7 -12 9 -10 9 8 0 23 -5 28 -14 14z"/>
<path d="M8241 11181 c-7 -5 -9 -11 -5 -14 5 -3 15 1 22 9 14 16 5 18 -17 5z"/>
<path d="M9890 11184 c0 -1 8 -8 17 -15 9 -8 14 -9 10 -2 -4 6 -1 13 5 16 7 3
3 4 -9 4 -13 -1 -23 -2 -23 -3z"/>
<path d="M8085 11050 c3 -5 13 -10 21 -10 8 0 12 5 9 10 -3 6 -13 10 -21 10
-8 0 -12 -4 -9 -10z"/>
<path d="M8050 11009 c0 -5 5 -7 10 -4 6 3 10 8 10 11 0 2 -4 4 -10 4 -5 0
-10 -5 -10 -11z"/>
<path d="M12375 10930 c3 -5 8 -10 11 -10 2 0 4 5 4 10 0 6 -5 10 -11 10 -5 0
-7 -4 -4 -10z"/>
<path d="M12405 10930 c3 -5 8 -10 11 -10 2 0 4 5 4 10 0 6 -5 10 -11 10 -5 0
-7 -4 -4 -10z"/>
<path d="M12155 10920 c-3 -5 -1 -10 4 -10 6 0 11 5 11 10 0 6 -2 10 -4 10 -3
0 -8 -4 -11 -10z"/>
<path d="M11986 10904 c-5 -14 -4 -15 9 -4 17 14 19 20 6 20 -5 0 -12 -7 -15
-16z"/>
<path d="M12181 10904 c0 -11 3 -14 6 -6 3 7 2 16 -1 19 -3 4 -6 -2 -5 -13z"/>
<path d="M12865 10890 c-3 -5 3 -10 15 -10 12 0 19 -4 16 -8 -3 -5 1 -9 9 -9
19 0 19 2 -1 21 -18 18 -30 20 -39 6z"/>
<path d="M11700 10881 c0 -5 7 -15 17 -22 15 -13 15 -12 4 9 -12 23 -21 28
-21 13z"/>
<path d="M11755 10880 c3 -5 8 -10 11 -10 2 0 4 5 4 10 0 6 -5 10 -11 10 -5 0
-7 -4 -4 -10z"/>
<path d="M11597 10874 c-8 -8 1 -24 12 -24 4 0 8 7 8 15 0 16 -9 20 -20 9z"/>
<path d="M11651 10864 c0 -11 3 -14 6 -6 3 7 2 16 -1 19 -3 4 -6 -2 -5 -13z"/>
<path d="M12926 10853 c-4 -9 1 -10 19 -3 15 6 25 5 27 -1 2 -6 17 -4 38 5
l35 14 -58 -1 c-34 -1 -59 -7 -61 -14z"/>
<path d="M13116 10834 c-5 -14 -4 -15 9 -4 17 14 19 20 6 20 -5 0 -12 -7 -15
-16z"/>
<path d="M11425 10830 c-3 -5 -2 -10 4 -10 5 0 13 5 16 10 3 6 2 10 -4 10 -5
0 -13 -4 -16 -10z"/>
<path d="M13170 10833 c8 -3 23 -12 33 -21 9 -8 20 -13 23 -9 9 9 -6 28 -17
22 -5 -4 -9 -1 -9 4 0 6 -10 11 -22 10 -15 0 -18 -2 -8 -6z"/>
<path d="M11305 10810 c-3 -5 -1 -10 4 -10 6 0 11 5 11 10 0 6 -2 10 -4 10 -3
0 -8 -4 -11 -10z"/>
<path d="M11330 10816 c0 -2 8 -10 18 -17 15 -13 16 -12 3 4 -13 16 -21 21
-21 13z"/>
<path d="M11250 10800 c-13 -8 -12 -10 3 -10 9 0 17 5 17 10 0 12 -1 12 -20 0z"/>
<path d="M11290 10780 c0 -5 5 -10 11 -10 5 0 7 5 4 10 -3 6 -8 10 -11 10 -2
0 -4 -4 -4 -10z"/>
<path d="M13380 10780 c0 -5 5 -10 11 -10 5 0 7 5 4 10 -3 6 -8 10 -11 10 -2
0 -4 -4 -4 -10z"/>
<path d="M5825 10769 c-4 -6 -5 -12 -2 -15 2 -3 7 2 10 11 7 17 1 20 -8 4z"/>
<path d="M7660 10750 c0 -5 10 -10 23 -10 18 0 19 2 7 10 -19 13 -30 13 -30 0z"/>
<path d="M13405 10750 c-3 -6 1 -7 9 -4 18 7 21 14 7 14 -6 0 -13 -4 -16 -10z"/>
<path d="M11034 10729 c-2 -4 7 -9 21 -11 15 -3 25 -1 25 6 0 12 -39 16 -46 5z"/>
<path d="M13475 10720 c-16 -7 -12 -9 18 -8 20 1 37 6 37 10 0 10 -29 9 -55
-2z"/>
<path d="M7406 10675 c-10 -7 -16 -20 -13 -27 4 -10 6 -10 6 0 1 6 12 12 26
12 18 0 23 4 19 15 -7 18 -14 18 -38 0z"/>
<path d="M9550 10670 c0 -5 -7 -10 -15 -10 -8 0 -15 -4 -15 -9 0 -10 19 -9 38
2 14 10 16 27 2 27 -5 0 -10 -4 -10 -10z"/>
<path d="M9495 10609 c-4 -6 -5 -12 -2 -15 2 -3 7 2 10 11 7 17 1 20 -8 4z"/>
<path d="M10780 10610 c0 -5 7 -7 15 -4 8 4 15 8 15 10 0 2 -7 4 -15 4 -8 0
-15 -4 -15 -10z"/>
<path d="M13695 10601 c-3 -5 -2 -12 3 -15 5 -3 9 1 9 9 0 17 -3 19 -12 6z"/>
<path d="M10464 10499 c-9 -16 2 -22 21 -11 15 8 16 10 1 15 -8 3 -18 2 -22
-4z"/>
<path d="M10377 10451 c3 -12 9 -21 13 -21 12 0 5 33 -8 38 -6 2 -8 -5 -5 -17z"/>
<path d="M10230 10360 c0 -5 7 -10 15 -10 8 0 15 5 15 10 0 6 -7 10 -15 10 -8
0 -15 -4 -15 -10z"/>
<path d="M10205 10330 c-3 -5 -1 -10 4 -10 6 0 11 5 11 10 0 6 -2 10 -4 10 -3
0 -8 -4 -11 -10z"/>
<path d="M9226 10314 c-4 -10 -1 -14 6 -12 15 5 23 28 10 28 -5 0 -13 -7 -16
-16z"/>
<path d="M14195 10161 c-3 -5 -2 -12 3 -15 5 -3 9 1 9 9 0 17 -3 19 -12 6z"/>
<path d="M14224 10144 c-2 -26 11 -33 19 -10 3 8 0 19 -6 24 -9 8 -12 4 -13
-14z"/>
<path d="M14246 10114 c-3 -8 -11 -12 -17 -8 -8 5 -9 3 -5 -5 5 -7 10 -10 13
-7 3 3 14 1 25 -5 18 -10 18 -9 8 11 -8 15 -8 20 -1 16 6 -4 11 -2 11 3 0 17
-27 13 -34 -5z"/>
<path d="M14324 10054 c19 -19 20 -31 4 -37 -8 -3 -6 -6 5 -6 9 -1 17 4 17 10
0 17 -20 49 -31 49 -6 0 -3 -7 5 -16z"/>
<path d="M8945 10050 c-3 -6 1 -7 9 -4 18 7 21 14 7 14 -6 0 -13 -4 -16 -10z"/>
<path d="M8908 10023 c7 -3 16 -2 19 1 4 3 -2 6 -13 5 -11 0 -14 -3 -6 -6z"/>
<path d="M14383 9922 c0 -18 14 -32 32 -32 6 1 2 7 -7 14 -10 7 -15 15 -12 18
3 4 1 8 -4 12 -5 3 -9 -3 -9 -12z"/>
<path d="M14410 9931 c0 -6 4 -13 10 -16 6 -3 7 1 4 9 -7 18 -14 21 -14 7z"/>
<path d="M8586 9828 c3 -5 10 -6 15 -3 13 9 11 12 -6 12 -8 0 -12 -4 -9 -9z"/>
<path d="M8540 9799 c0 -5 5 -7 10 -4 6 3 10 8 10 11 0 2 -4 4 -10 4 -5 0 -10
-5 -10 -11z"/>
<path d="M8460 9750 c-12 -7 -10 -9 8 -7 12 0 22 5 22 9 0 11 -12 10 -30 -2z"/>
<path d="M8400 9726 c0 -2 7 -6 15 -10 8 -3 15 -1 15 4 0 6 -7 10 -15 10 -8 0
-15 -2 -15 -4z"/>
<path d="M10265 9720 c3 -5 8 -10 11 -10 2 0 4 5 4 10 0 6 -5 10 -11 10 -5 0
-7 -4 -4 -10z"/>
<path d="M8350 9700 c-9 -6 -10 -10 -3 -10 6 0 15 5 18 10 8 12 4 12 -15 0z"/>
<path d="M8318 9673 c6 -2 18 -2 25 0 6 3 1 5 -13 5 -14 0 -19 -2 -12 -5z"/>
<path d="M14520 9650 c8 -5 20 -10 25 -10 6 0 3 5 -5 10 -8 5 -19 10 -25 10
-5 0 -3 -5 5 -10z"/>
<path d="M10310 9596 c0 -2 7 -7 16 -10 8 -3 12 -2 9 4 -6 10 -25 14 -25 6z"/>
<path d="M12260 9580 c0 -5 7 -7 15 -4 8 4 15 8 15 10 0 2 -7 4 -15 4 -8 0
-15 -4 -15 -10z"/>
<path d="M11953 9563 c-16 -6 -17 -33 -1 -33 6 0 8 3 5 7 -4 3 -2 12 4 20 12
14 11 14 -8 6z"/>
<path d="M12070 9562 c-5 -2 -10 -8 -10 -13 0 -9 43 -3 69 11 13 7 -38 9 -59
2z"/>
<path d="M11770 9510 c0 -5 5 -10 10 -10 6 0 10 5 10 10 0 6 -4 10 -10 10 -5
0 -10 -4 -10 -10z"/>
<path d="M14634 9454 c-18 -14 -18 -15 4 -4 12 6 22 13 22 15 0 8 -5 6 -26
-11z"/>
<path d="M11551 9444 c0 -11 3 -14 6 -6 3 7 2 16 -1 19 -3 4 -6 -2 -5 -13z"/>
<path d="M14655 9427 c-4 -10 -5 -21 -1 -24 10 -10 18 4 13 24 -4 17 -4 17
-12 0z"/>
<path d="M11346 9415 c-3 -8 0 -17 6 -21 6 -4 8 -3 4 4 -3 5 -1 12 6 14 8 3 9
6 1 11 -6 4 -13 0 -17 -8z"/>
<path d="M14674 9385 c3 -8 1 -15 -4 -15 -6 0 -10 5 -10 12 0 6 -2 9 -5 6 -9
-8 6 -38 16 -32 5 3 14 14 19 25 9 15 7 19 -6 19 -10 0 -14 -5 -10 -15z"/>
<path d="M8221 9364 c0 -11 3 -14 6 -6 3 7 2 16 -1 19 -3 4 -6 -2 -5 -13z"/>
<path d="M11248 9366 c-22 -16 -23 -26 -3 -26 8 0 15 5 15 11 0 5 4 8 8 5 5
-3 9 1 9 9 0 18 -7 18 -29 1z"/>
<path d="M11318 9373 c6 -2 18 -2 25 0 6 3 1 5 -13 5 -14 0 -19 -2 -12 -5z"/>
<path d="M8241 9303 c7 -12 15 -20 18 -17 3 2 -3 12 -13 22 -17 16 -18 16 -5
-5z"/>
<path d="M10946 9232 c-3 -5 1 -9 9 -9 8 0 12 4 9 9 -3 4 -7 8 -9 8 -2 0 -6
-4 -9 -8z"/>
<path d="M10905 9210 c-3 -5 -1 -10 4 -10 6 0 11 5 11 10 0 6 -2 10 -4 10 -3
0 -8 -4 -11 -10z"/>
<path d="M10546 9175 c4 -8 10 -12 15 -9 11 6 2 24 -11 24 -5 0 -7 -7 -4 -15z"/>
<path d="M14765 9140 c3 -5 11 -10 16 -10 6 0 7 5 4 10 -3 6 -11 10 -16 10 -6
0 -7 -4 -4 -10z"/>
<path d="M10620 9133 c0 -7 8 -17 18 -22 14 -7 19 -6 19 4 0 8 -5 11 -10 8 -5
-3 -13 1 -18 8 -6 10 -9 10 -9 2z"/>
<path d="M10675 9100 c4 -6 11 -8 16 -5 14 9 11 15 -7 15 -8 0 -12 -5 -9 -10z"/>
<path d="M7183 8745 c0 -8 4 -12 9 -9 5 3 6 10 3 15 -9 13 -12 11 -12 -6z"/>
<path d="M5505 8681 c-3 -5 -2 -12 3 -15 5 -3 9 1 9 9 0 17 -3 19 -12 6z"/>
<path d="M13531 8604 c0 -11 3 -14 6 -6 3 7 2 16 -1 19 -3 4 -6 -2 -5 -13z"/>
<path d="M7241 8573 c7 -12 15 -20 18 -17 3 2 -3 12 -13 22 -17 16 -18 16 -5
-5z"/>
<path d="M13531 8524 c0 -11 3 -14 6 -6 3 7 2 16 -1 19 -3 4 -6 -2 -5 -13z"/>
<path d="M6821 8464 c0 -11 3 -14 6 -6 3 7 2 16 -1 19 -3 4 -6 -2 -5 -13z"/>
<path d="M8581 8471 c-10 -7 -10 -10 -1 -16 6 -4 16 -3 22 3 13 13 -4 23 -21
13z"/>
<path d="M7287 8429 c7 -7 15 -10 18 -7 3 3 -2 9 -12 12 -14 6 -15 5 -6 -5z"/>
<path d="M8590 8430 c0 -6 4 -9 9 -6 5 4 12 1 14 -4 3 -6 4 -5 3 2 -3 15 -26
23 -26 8z"/>
<path d="M11630 8400 c0 -6 7 -10 15 -10 8 0 15 2 15 4 0 2 -7 6 -15 10 -8 3
-15 1 -15 -4z"/>
<path d="M11710 8366 c0 -2 7 -7 16 -10 8 -3 12 -2 9 4 -6 10 -25 14 -25 6z"/>
<path d="M8640 8325 c0 -5 5 -17 10 -25 5 -8 10 -10 10 -5 0 6 -5 17 -10 25
-5 8 -10 11 -10 5z"/>
<path d="M11132 8303 c-11 -11 -17 -11 -28 -2 -12 10 -13 9 -8 -5 3 -9 9 -16
13 -16 12 0 46 28 41 33 -3 3 -11 -2 -18 -10z"/>
<path d="M11160 8310 c0 -5 5 -10 10 -10 6 0 10 5 10 10 0 6 -4 10 -10 10 -5
0 -10 -4 -10 -10z"/>
<path d="M5501 8264 c0 -11 3 -14 6 -6 3 7 2 16 -1 19 -3 4 -6 -2 -5 -13z"/>
<path d="M13478 8258 c-3 -15 -2 -32 2 -38 10 -17 19 21 10 45 -6 17 -7 16
-12 -7z"/>
<path d="M13468 8193 c7 -3 16 -2 19 1 4 3 -2 6 -13 5 -11 0 -14 -3 -6 -6z"/>
<path d="M7425 8090 c-3 -5 1 -10 10 -10 9 0 13 5 10 10 -3 6 -8 10 -10 10 -2
0 -7 -4 -10 -10z"/>
<path d="M6740 8049 c0 -5 5 -7 10 -4 6 3 10 8 10 11 0 2 -4 4 -10 4 -5 0 -10
-5 -10 -11z"/>
<path d="M14726 8014 c-5 -14 -4 -15 9 -4 17 14 19 20 6 20 -5 0 -12 -7 -15
-16z"/>
<path d="M8855 8010 c-3 -5 -1 -10 4 -10 6 0 11 5 11 10 0 6 -2 10 -4 10 -3 0
-8 -4 -11 -10z"/>
<path d="M11821 7994 c0 -11 3 -14 6 -6 3 7 2 16 -1 19 -3 4 -6 -2 -5 -13z"/>
<path d="M8890 7941 c0 -6 4 -13 10 -16 6 -3 7 1 4 9 -7 18 -14 21 -14 7z"/>
<path d="M10503 7861 c0 -11 5 -18 9 -15 4 3 5 11 1 19 -7 21 -12 19 -10 -4z"/>
<path d="M14676 7835 c-3 -8 -1 -15 4 -15 6 0 10 7 10 15 0 8 -2 15 -4 15 -2
0 -6 -7 -10 -15z"/>
<path d="M7555 7830 c-3 -5 -1 -10 4 -10 6 0 11 5 11 10 0 6 -2 10 -4 10 -3 0
-8 -4 -11 -10z"/>
<path d="M7571 7801 c-8 -6 -9 -11 -3 -15 6 -3 14 -1 17 5 9 14 2 20 -14 10z"/>
<path d="M6717 7749 c7 -7 15 -10 18 -7 3 3 -2 9 -12 12 -14 6 -15 5 -6 -5z"/>
<path d="M6030 7745 c0 -7 30 -13 34 -7 3 4 -4 9 -15 9 -10 1 -19 0 -19 -2z"/>
<path d="M14630 7710 c0 -5 5 -10 11 -10 5 0 7 5 4 10 -3 6 -8 10 -11 10 -2 0
-4 -4 -4 -10z"/>
<path d="M10471 7703 c1 -4 -1 -16 -6 -26 -5 -11 -3 -23 4 -30 9 -9 11 -8 5 6
-3 9 -1 24 5 31 9 10 9 16 1 21 -6 4 -10 3 -9 -2z"/>
<path d="M9158 7643 c6 -2 9 -10 6 -15 -4 -7 -2 -8 5 -4 13 9 5 26 -12 25 -9
0 -8 -2 1 -6z"/>
<path d="M14610 7610 c0 -5 5 -10 10 -10 6 0 10 5 10 10 0 6 -4 10 -10 10 -5
0 -10 -4 -10 -10z"/>
<path d="M10453 7595 c0 -8 4 -15 9 -15 4 0 8 4 8 9 0 6 -4 12 -8 15 -5 3 -9
-1 -9 -9z"/>
<path d="M10441 7530 c-7 -16 -5 -58 2 -51 5 5 7 19 4 32 -2 13 -5 22 -6 19z"/>
<path d="M14580 7520 c0 -5 5 -10 11 -10 5 0 7 5 4 10 -3 6 -8 10 -11 10 -2 0
-4 -4 -4 -10z"/>
<path d="M9300 7490 c0 -5 5 -10 11 -10 5 0 7 5 4 10 -3 6 -8 10 -11 10 -2 0
-4 -4 -4 -10z"/>
<path d="M9385 7420 c3 -5 8 -10 11 -10 2 0 4 5 4 10 0 6 -5 10 -11 10 -5 0
-7 -4 -4 -10z"/>
<path d="M14524 7391 c0 -11 4 -17 8 -15 4 3 8 12 8 20 0 8 -4 14 -8 14 -4 0
-8 -9 -8 -19z"/>
<path d="M9495 7320 c-3 -5 0 -10 9 -10 8 0 17 -6 19 -12 4 -8 6 -9 6 -2 1 18
-26 37 -34 24z"/>
<path d="M10850 7250 c20 -13 50 -13 50 0 0 6 -15 10 -32 10 -25 0 -29 -3 -18
-10z"/>
<path d="M14441 7221 c-8 -5 -9 -11 -3 -15 5 -3 12 1 16 9 6 17 6 18 -13 6z"/>
<path d="M9695 7151 c-3 -5 -2 -12 3 -15 5 -3 9 1 9 9 0 17 -3 19 -12 6z"/>
<path d="M12771 7142 c-7 -13 -6 -19 2 -19 7 0 13 9 13 19 0 10 -1 18 -3 18
-1 0 -7 -8 -12 -18z"/>
<path d="M10386 7132 c-2 -4 -1 -14 4 -22 4 -7 6 -19 3 -27 -3 -7 0 -13 5 -13
11 0 9 31 -2 49 -4 5 0 12 6 14 9 4 10 6 1 6 -6 1 -14 -3 -17 -7z"/>
<path d="M8025 7059 c-5 -8 -4 -10 0 -6 5 4 15 -3 22 -15 7 -13 12 -18 13 -12
0 5 -6 18 -13 29 -12 15 -15 16 -22 4z"/>
<path d="M12690 7060 c0 -5 5 -10 11 -10 5 0 7 5 4 10 -3 6 -8 10 -11 10 -2 0
-4 -4 -4 -10z"/>
<path d="M10376 6995 c4 -8 8 -15 10 -15 2 0 4 7 4 15 0 8 -4 15 -10 15 -5 0
-7 -7 -4 -15z"/>
<path d="M9905 6981 c-3 -5 0 -13 6 -17 8 -5 9 -3 4 6 -6 10 -3 12 13 8 12 -4
20 -2 16 3 -7 12 -31 12 -39 0z"/>
<path d="M9960 6960 c-13 -8 -12 -10 3 -10 9 0 17 5 17 10 0 12 -1 12 -20 0z"/>
<path d="M9980 6936 c0 -2 7 -6 15 -10 8 -3 15 -1 15 4 0 6 -7 10 -15 10 -8 0
-15 -2 -15 -4z"/>
<path d="M10060 6901 c0 -5 7 -12 16 -15 14 -5 15 -4 4 9 -14 17 -20 19 -20 6z"/>
<path d="M10138 6863 c7 -3 16 -2 19 1 4 3 -2 6 -13 5 -11 0 -14 -3 -6 -6z"/>
<path d="M10131 6846 c12 -10 60 -16 54 -6 -3 5 -18 10 -32 10 -15 0 -24 -2
-22 -4z"/>
<path d="M10203 6818 c3 -9 1 -19 -6 -22 -9 -3 -9 -5 0 -5 18 -1 27 19 13 32
-10 9 -12 8 -7 -5z"/>
<path d="M10230 6811 c0 -5 5 -13 10 -16 6 -3 10 -2 10 4 0 5 -4 13 -10 16 -5
3 -10 2 -10 -4z"/>
<path d="M8250 6800 c0 -5 5 -10 11 -10 5 0 7 5 4 10 -3 6 -8 10 -11 10 -2 0
-4 -4 -4 -10z"/>
<path d="M11904 6724 c-18 -14 -18 -14 6 -3 31 14 36 19 24 19 -6 0 -19 -7
-30 -16z"/>
<path d="M11780 6720 c-9 -6 -10 -10 -3 -10 6 0 15 5 18 10 8 12 4 12 -15 0z"/>
<path d="M8475 6589 c-4 -6 -5 -12 -2 -15 2 -3 7 2 10 11 7 17 1 20 -8 4z"/>
<path d="M13865 6530 c3 -5 8 -10 11 -10 2 0 4 5 4 10 0 6 -5 10 -11 10 -5 0
-7 -4 -4 -10z"/>
<path d="M13680 6360 c-9 -6 -10 -10 -3 -10 6 0 15 5 18 10 8 12 4 12 -15 0z"/>
<path d="M9060 6151 c0 -6 4 -13 10 -16 6 -3 7 1 4 9 -7 18 -14 21 -14 7z"/>
<path d="M9395 5940 c-3 -5 -1 -10 4 -10 6 0 11 5 11 10 0 6 -2 10 -4 10 -3 0
-8 -4 -11 -10z"/>
<path d="M12743 5848 c-2 -16 1 -18 10 -9 7 7 8 14 1 21 -6 6 -10 2 -11 -12z"/>
<path d="M9587 5819 c7 -7 15 -10 18 -7 3 3 -2 9 -12 12 -14 6 -15 5 -6 -5z"/>
<path d="M12610 5779 c0 -5 5 -7 10 -4 6 3 10 8 10 11 0 2 -4 4 -10 4 -5 0
-10 -5 -10 -11z"/>
<path d="M12476 5748 c3 -5 10 -6 15 -3 13 9 11 12 -6 12 -8 0 -12 -4 -9 -9z"/>
<path d="M12305 5690 c-4 -6 3 -10 14 -10 25 0 27 6 6 13 -8 4 -17 2 -20 -3z"/>
<path d="M9995 5650 c3 -5 8 -10 11 -10 2 0 4 5 4 10 0 6 -5 10 -11 10 -5 0
-7 -4 -4 -10z"/>
<path d="M11250 4230 c0 -5 5 -10 11 -10 5 0 7 5 4 10 -3 6 -8 10 -11 10 -2 0
-4 -4 -4 -10z"/>
<path d="M11183 3825 c0 -8 4 -12 9 -9 5 3 6 10 3 15 -9 13 -12 11 -12 -6z"/>
<path d="M10695 3750 c-3 -5 -1 -10 4 -10 6 0 11 5 11 10 0 6 -2 10 -4 10 -3
0 -8 -4 -11 -10z"/>
</g>
</svg>
